<svg xmlns="http://www.w3.org/2000/svg" xmlns:xlink="http://www.w3.org/1999/xlink" width="500" zoomAndPan="magnify" viewBox="0 0 375 60" height="80" preserveAspectRatio="xMidYMid meet" version="1.0"><defs><filter x="0%" y="0%" width="100%" height="100%" id="2072cf6d44"><feColorMatrix values="0 0 0 0 1 0 0 0 0 1 0 0 0 0 1 0 0 0 1 0" color-interpolation-filters="sRGB"/></filter><g/><clipPath id="133d332f3f"><path d="M 2.59375 8.871094 L 44.59375 8.871094 L 44.59375 50.871094 L 2.59375 50.871094 Z M 2.59375 8.871094 " clip-rule="nonzero"/></clipPath><mask id="213ec9cb0e"><g filter="url(#2072cf6d44)"><rect x="-37.5" width="450" fill="#000000" y="-6" height="72" fill-opacity="0.8"/></g></mask><clipPath id="6b12428b63"><path d="M 11 6 L 16 6 L 16 13.878906 L 11 13.878906 Z M 11 6 " clip-rule="nonzero"/></clipPath><clipPath id="73f00e425a"><path d="M 47 6 L 52 6 L 52 13.878906 L 47 13.878906 Z M 47 6 " clip-rule="nonzero"/></clipPath><clipPath id="3294c2fb41"><path d="M 176 6 L 182 6 L 182 13.878906 L 176 13.878906 Z M 176 6 " clip-rule="nonzero"/></clipPath><clipPath id="412324e906"><rect x="0" width="318" y="0" height="14"/></clipPath></defs><g clip-path="url(#133d332f3f)"><path fill="#eac7a5" d="M 44.578125 29.066406 C 44.578125 29.066406 44.578125 29.066406 44.578125 29.0625 C 44.578125 29.019531 44.578125 28.984375 44.574219 28.941406 L 44.570312 28.835938 L 44.566406 28.832031 C 44.570312 28.824219 44.570312 28.820312 44.5625 28.808594 C 44.558594 28.675781 44.550781 28.535156 44.542969 28.398438 C 44.535156 28.273438 44.523438 28.144531 44.511719 28.015625 C 44.507812 27.933594 44.5 27.855469 44.488281 27.773438 C 44.472656 27.597656 44.453125 27.421875 44.429688 27.246094 C 44.40625 27.050781 44.378906 26.859375 44.351562 26.664062 C 44.347656 26.65625 44.347656 26.644531 44.347656 26.632812 L 44.339844 26.582031 C 44.335938 26.574219 44.335938 26.5625 44.335938 26.554688 L 44.316406 26.449219 L 44.316406 26.441406 C 44.292969 26.289062 44.265625 26.140625 44.234375 25.984375 C 44.210938 25.84375 44.183594 25.707031 44.152344 25.566406 C 44.148438 25.542969 44.144531 25.523438 44.140625 25.5 C 44.105469 25.335938 44.066406 25.175781 44.027344 25.011719 C 44.023438 24.992188 44.019531 24.972656 44.015625 24.953125 C 43.980469 24.808594 43.945312 24.667969 43.90625 24.523438 C 43.898438 24.492188 43.886719 24.460938 43.882812 24.429688 L 43.859375 24.351562 C 43.851562 24.328125 43.847656 24.304688 43.839844 24.28125 C 43.808594 24.164062 43.773438 24.042969 43.738281 23.925781 C 43.703125 23.808594 43.667969 23.695312 43.636719 23.582031 C 43.539062 23.277344 43.433594 22.972656 43.328125 22.675781 C 43.289062 22.566406 43.246094 22.457031 43.207031 22.351562 C 43.1875 22.304688 43.167969 22.257812 43.152344 22.210938 C 43.054688 21.960938 42.949219 21.710938 42.84375 21.464844 C 42.804688 21.375 42.761719 21.285156 42.722656 21.195312 C 42.5 20.703125 42.257812 20.226562 42 19.753906 C 41.953125 19.667969 41.90625 19.582031 41.855469 19.496094 C 41.792969 19.382812 41.730469 19.273438 41.664062 19.167969 C 41.589844 19.042969 41.519531 18.921875 41.441406 18.800781 C 41.367188 18.679688 41.289062 18.558594 41.214844 18.441406 C 41.136719 18.324219 41.054688 18.207031 40.976562 18.085938 C 40.921875 18.003906 40.863281 17.917969 40.804688 17.835938 C 40.527344 17.445312 40.242188 17.0625 39.941406 16.6875 C 39.851562 16.578125 39.761719 16.46875 39.671875 16.363281 C 39.398438 16.042969 39.117188 15.726562 38.828125 15.417969 C 38.726562 15.316406 38.632812 15.214844 38.53125 15.117188 C 38.414062 14.996094 38.292969 14.878906 38.171875 14.765625 C 37.992188 14.585938 37.804688 14.414062 37.617188 14.246094 C 37.511719 14.152344 37.40625 14.058594 37.300781 13.972656 C 37.195312 13.878906 37.085938 13.789062 36.976562 13.699219 C 36.761719 13.519531 36.542969 13.34375 36.320312 13.175781 C 35.984375 12.917969 35.644531 12.675781 35.292969 12.441406 C 34.941406 12.203125 34.585938 11.980469 34.222656 11.769531 C 33.984375 11.625 33.738281 11.488281 33.488281 11.355469 C 33.246094 11.222656 33 11.101562 32.757812 10.980469 C 32.347656 10.78125 31.933594 10.597656 31.511719 10.425781 C 31.402344 10.382812 31.296875 10.335938 31.183594 10.292969 C 30.484375 10.023438 29.765625 9.785156 29.035156 9.589844 C 28.808594 9.527344 28.578125 9.472656 28.34375 9.414062 C 28.179688 9.375 28.011719 9.339844 27.839844 9.308594 C 27.644531 9.261719 27.445312 9.226562 27.242188 9.191406 C 27.046875 9.15625 26.847656 9.125 26.652344 9.09375 C 26.550781 9.078125 26.453125 9.066406 26.355469 9.054688 C 26.277344 9.042969 26.199219 9.03125 26.117188 9.023438 C 25.730469 8.976562 25.339844 8.941406 24.945312 8.914062 C 24.5 8.886719 24.046875 8.871094 23.59375 8.871094 C 23.140625 8.871094 22.6875 8.886719 22.242188 8.914062 C 21.851562 8.941406 21.460938 8.976562 21.070312 9.023438 C 20.992188 9.03125 20.914062 9.042969 20.835938 9.054688 C 20.738281 9.066406 20.636719 9.078125 20.539062 9.09375 C 20.339844 9.125 20.144531 9.15625 19.949219 9.191406 C 19.746094 9.226562 19.546875 9.261719 19.347656 9.308594 C 19.179688 9.339844 19.011719 9.375 18.84375 9.414062 C 18.613281 9.472656 18.382812 9.527344 18.15625 9.589844 C 17.421875 9.785156 16.707031 10.023438 16.003906 10.292969 C 15.894531 10.335938 15.785156 10.382812 15.679688 10.425781 C 15.257812 10.597656 14.839844 10.78125 14.433594 10.980469 C 14.1875 11.101562 13.945312 11.222656 13.703125 11.355469 C 13.453125 11.488281 13.207031 11.625 12.964844 11.769531 C 12.605469 11.980469 12.25 12.203125 11.894531 12.441406 C 11.546875 12.675781 11.203125 12.917969 10.871094 13.175781 C 10.648438 13.34375 10.429688 13.515625 10.210938 13.699219 C 10.101562 13.789062 9.996094 13.878906 9.890625 13.972656 C 9.78125 14.058594 9.679688 14.152344 9.574219 14.246094 C 9.386719 14.414062 9.199219 14.585938 9.019531 14.765625 C 8.894531 14.878906 8.777344 14.996094 8.65625 15.117188 C 8.558594 15.214844 8.460938 15.316406 8.363281 15.417969 C 8.074219 15.726562 7.789062 16.039062 7.519531 16.363281 C 7.429688 16.46875 7.339844 16.578125 7.25 16.6875 C 6.949219 17.0625 6.660156 17.445312 6.386719 17.835938 C 6.328125 17.917969 6.269531 18.003906 6.214844 18.085938 C 6.132812 18.207031 6.054688 18.324219 5.976562 18.441406 C 5.898438 18.558594 5.824219 18.679688 5.75 18.800781 C 5.671875 18.921875 5.597656 19.042969 5.527344 19.167969 C 5.460938 19.273438 5.398438 19.382812 5.335938 19.496094 C 5.285156 19.582031 5.238281 19.667969 5.191406 19.753906 C 4.929688 20.226562 4.691406 20.703125 4.46875 21.195312 C 4.425781 21.285156 4.386719 21.375 4.347656 21.464844 C 4.238281 21.710938 4.136719 21.960938 4.035156 22.210938 C 4.019531 22.257812 4 22.304688 3.984375 22.351562 C 3.941406 22.457031 3.902344 22.566406 3.863281 22.675781 C 3.753906 22.972656 3.652344 23.277344 3.554688 23.582031 C 3.519531 23.695312 3.484375 23.808594 3.453125 23.925781 C 3.414062 24.042969 3.382812 24.164062 3.351562 24.28125 C 3.34375 24.304688 3.339844 24.328125 3.332031 24.351562 L 3.308594 24.429688 C 3.300781 24.460938 3.292969 24.492188 3.285156 24.523438 C 3.246094 24.667969 3.210938 24.808594 3.175781 24.953125 C 3.171875 24.972656 3.167969 24.992188 3.164062 25.011719 C 3.125 25.175781 3.085938 25.335938 3.050781 25.5 C 3.046875 25.523438 3.042969 25.542969 3.035156 25.566406 C 3.007812 25.707031 2.980469 25.84375 2.953125 25.984375 C 2.925781 26.140625 2.898438 26.289062 2.875 26.441406 L 2.871094 26.449219 L 2.855469 26.554688 C 2.851562 26.5625 2.851562 26.574219 2.851562 26.582031 L 2.84375 26.632812 C 2.839844 26.644531 2.839844 26.65625 2.839844 26.664062 C 2.808594 26.859375 2.785156 27.050781 2.757812 27.246094 C 2.738281 27.421875 2.71875 27.597656 2.703125 27.773438 C 2.691406 27.855469 2.683594 27.933594 2.679688 28.015625 C 2.664062 28.144531 2.65625 28.273438 2.648438 28.398438 C 2.640625 28.535156 2.632812 28.675781 2.625 28.808594 C 2.621094 28.820312 2.621094 28.828125 2.625 28.832031 L 2.621094 28.835938 L 2.617188 28.941406 C 2.613281 28.984375 2.613281 29.019531 2.613281 29.0625 C 2.613281 29.066406 2.613281 29.066406 2.613281 29.066406 C 2.601562 29.316406 2.59375 29.582031 2.59375 29.871094 C 2.59375 30.179688 2.601562 30.484375 2.613281 30.789062 C 2.617188 30.902344 2.625 31.019531 2.632812 31.132812 L 2.632812 31.15625 C 2.640625 31.285156 2.648438 31.414062 2.664062 31.542969 C 2.660156 31.546875 2.664062 31.550781 2.664062 31.558594 L 2.660156 31.558594 L 2.679688 31.753906 C 2.683594 31.808594 2.6875 31.863281 2.695312 31.917969 C 2.742188 32.421875 2.808594 32.925781 2.894531 33.425781 C 2.914062 33.527344 2.933594 33.632812 2.953125 33.734375 C 2.972656 33.859375 2.996094 33.980469 3.019531 34.101562 C 3.046875 34.21875 3.070312 34.335938 3.097656 34.453125 C 3.121094 34.570312 3.148438 34.6875 3.179688 34.804688 L 3.171875 34.808594 L 3.308594 35.3125 C 3.3125 35.332031 3.320312 35.351562 3.324219 35.375 C 3.371094 35.539062 3.417969 35.703125 3.464844 35.867188 C 3.511719 36.03125 3.5625 36.195312 3.617188 36.355469 C 3.617188 36.363281 3.621094 36.378906 3.625 36.386719 C 3.675781 36.535156 3.722656 36.679688 3.773438 36.828125 C 3.78125 36.84375 3.785156 36.855469 3.789062 36.867188 C 3.839844 37.011719 3.894531 37.160156 3.949219 37.300781 C 3.957031 37.328125 3.96875 37.355469 3.976562 37.382812 C 4.03125 37.523438 4.089844 37.660156 4.144531 37.800781 C 4.207031 37.957031 4.273438 38.113281 4.34375 38.269531 C 4.476562 38.585938 4.621094 38.894531 4.773438 39.203125 L 4.695312 39.175781 L 5.328125 40.242188 C 5.390625 40.347656 5.445312 40.449219 5.507812 40.550781 C 5.597656 40.699219 5.691406 40.851562 5.785156 41.003906 C 5.96875 41.304688 6.164062 41.59375 6.367188 41.882812 C 6.464844 42.027344 6.570312 42.171875 6.671875 42.316406 C 6.882812 42.597656 7.09375 42.878906 7.316406 43.148438 C 7.648438 43.554688 7.996094 43.949219 8.359375 44.332031 C 8.480469 44.457031 8.601562 44.582031 8.726562 44.707031 C 9.46875 45.449219 10.273438 46.140625 11.128906 46.773438 L 12.40625 47.714844 L 12.386719 47.632812 C 12.398438 47.640625 12.410156 47.648438 12.421875 47.65625 C 12.53125 47.726562 12.644531 47.792969 12.753906 47.859375 C 13.339844 48.214844 13.941406 48.539062 14.5625 48.832031 C 14.65625 48.878906 14.75 48.925781 14.84375 48.96875 C 15.1875 49.125 15.53125 49.273438 15.886719 49.410156 C 15.941406 49.433594 15.992188 49.453125 16.050781 49.476562 C 16.09375 49.492188 16.136719 49.507812 16.183594 49.527344 C 16.207031 49.535156 16.230469 49.542969 16.253906 49.554688 L 16.597656 49.6875 L 16.597656 49.679688 C 16.828125 49.761719 17.058594 49.835938 17.289062 49.910156 C 17.40625 49.945312 17.523438 49.980469 17.640625 50.015625 C 17.746094 50.046875 17.847656 50.078125 17.957031 50.105469 C 18.15625 50.164062 18.359375 50.214844 18.558594 50.265625 C 18.703125 50.300781 18.847656 50.332031 18.992188 50.363281 C 19.132812 50.394531 19.277344 50.425781 19.421875 50.457031 C 19.433594 50.457031 19.441406 50.460938 19.453125 50.464844 L 19.761719 50.527344 L 19.765625 50.523438 C 19.832031 50.535156 19.898438 50.546875 19.960938 50.558594 C 20.007812 50.566406 20.050781 50.570312 20.097656 50.578125 C 20.121094 50.585938 20.144531 50.585938 20.167969 50.589844 L 20.203125 50.597656 C 20.285156 50.609375 20.367188 50.625 20.449219 50.636719 C 20.535156 50.648438 20.625 50.660156 20.707031 50.675781 C 21.214844 50.742188 21.730469 50.792969 22.242188 50.824219 C 22.257812 50.828125 22.277344 50.828125 22.292969 50.832031 C 22.335938 50.835938 22.382812 50.839844 22.425781 50.839844 L 22.4375 50.839844 C 22.449219 50.839844 22.460938 50.84375 22.472656 50.84375 C 22.492188 50.84375 22.515625 50.84375 22.535156 50.84375 C 22.605469 50.851562 22.675781 50.851562 22.742188 50.855469 C 23.015625 50.867188 23.300781 50.871094 23.59375 50.871094 C 23.882812 50.871094 24.167969 50.867188 24.441406 50.855469 C 24.511719 50.851562 24.582031 50.847656 24.648438 50.84375 C 24.671875 50.84375 24.691406 50.84375 24.710938 50.84375 C 24.722656 50.84375 24.734375 50.839844 24.746094 50.839844 L 24.757812 50.839844 C 24.800781 50.835938 24.847656 50.835938 24.894531 50.832031 C 24.910156 50.828125 24.925781 50.828125 24.941406 50.824219 C 25.453125 50.792969 25.96875 50.742188 26.476562 50.675781 C 26.5625 50.660156 26.648438 50.648438 26.734375 50.636719 C 26.816406 50.625 26.898438 50.609375 26.980469 50.597656 L 27.015625 50.589844 C 27.039062 50.585938 27.0625 50.585938 27.085938 50.578125 C 27.132812 50.570312 27.175781 50.566406 27.222656 50.558594 C 27.285156 50.546875 27.355469 50.535156 27.417969 50.523438 L 27.421875 50.527344 L 27.734375 50.464844 C 27.742188 50.460938 27.753906 50.457031 27.761719 50.457031 L 27.765625 50.457031 C 27.910156 50.425781 28.050781 50.394531 28.191406 50.363281 C 28.339844 50.332031 28.480469 50.300781 28.625 50.265625 C 28.828125 50.214844 29.027344 50.164062 29.230469 50.105469 C 29.335938 50.078125 29.4375 50.046875 29.542969 50.015625 C 29.660156 49.980469 29.777344 49.945312 29.898438 49.910156 C 30.128906 49.835938 30.355469 49.761719 30.585938 49.679688 L 30.589844 49.6875 L 30.929688 49.554688 C 30.953125 49.542969 30.980469 49.535156 31 49.527344 C 31.046875 49.507812 31.089844 49.492188 31.136719 49.476562 C 31.191406 49.453125 31.242188 49.433594 31.300781 49.410156 C 31.652344 49.273438 32 49.125 32.339844 48.96875 C 32.433594 48.925781 32.527344 48.878906 32.621094 48.832031 C 33.242188 48.539062 33.84375 48.214844 34.429688 47.859375 C 34.542969 47.792969 34.652344 47.726562 34.761719 47.65625 C 34.773438 47.648438 34.785156 47.640625 34.796875 47.632812 L 34.78125 47.714844 L 36.058594 46.773438 C 36.914062 46.140625 37.714844 45.449219 38.457031 44.707031 C 38.582031 44.582031 38.707031 44.457031 38.828125 44.332031 C 39.1875 43.949219 39.535156 43.554688 39.867188 43.148438 C 40.089844 42.878906 40.304688 42.597656 40.511719 42.316406 C 40.613281 42.171875 40.71875 42.027344 40.820312 41.882812 C 41.019531 41.59375 41.214844 41.304688 41.402344 41.003906 C 41.496094 40.851562 41.589844 40.699219 41.679688 40.550781 C 41.738281 40.449219 41.796875 40.347656 41.855469 40.242188 L 42.488281 39.175781 L 42.410156 39.203125 C 42.5625 38.894531 42.707031 38.585938 42.839844 38.269531 C 42.910156 38.113281 42.976562 37.957031 43.042969 37.800781 C 43.097656 37.660156 43.152344 37.523438 43.207031 37.382812 C 43.21875 37.355469 43.226562 37.328125 43.238281 37.300781 C 43.292969 37.15625 43.34375 37.011719 43.394531 36.867188 C 43.402344 36.855469 43.40625 36.84375 43.410156 36.828125 C 43.460938 36.679688 43.511719 36.535156 43.558594 36.386719 C 43.5625 36.378906 43.566406 36.363281 43.570312 36.355469 C 43.621094 36.195312 43.671875 36.03125 43.71875 35.867188 C 43.769531 35.703125 43.816406 35.539062 43.859375 35.375 C 43.867188 35.351562 43.871094 35.335938 43.878906 35.3125 L 44.015625 34.808594 L 44.007812 34.804688 C 44.035156 34.6875 44.0625 34.574219 44.089844 34.453125 C 44.113281 34.335938 44.140625 34.21875 44.164062 34.101562 C 44.191406 33.980469 44.210938 33.859375 44.234375 33.734375 C 44.253906 33.632812 44.273438 33.527344 44.289062 33.425781 C 44.375 32.925781 44.441406 32.421875 44.492188 31.917969 C 44.496094 31.863281 44.5 31.808594 44.507812 31.753906 L 44.523438 31.558594 C 44.523438 31.550781 44.523438 31.546875 44.523438 31.542969 C 44.535156 31.414062 44.542969 31.285156 44.550781 31.15625 L 44.550781 31.132812 C 44.558594 31.019531 44.566406 30.902344 44.570312 30.789062 C 44.582031 30.484375 44.589844 30.179688 44.589844 29.871094 C 44.597656 29.582031 44.589844 29.316406 44.578125 29.066406 Z M 15.070312 47.742188 C 14.996094 47.707031 14.929688 47.671875 14.859375 47.636719 C 14.851562 47.636719 14.847656 47.632812 14.839844 47.628906 C 14.683594 47.550781 14.53125 47.472656 14.375 47.390625 C 14.351562 47.378906 14.324219 47.363281 14.300781 47.351562 C 14.167969 47.28125 14.035156 47.207031 13.90625 47.136719 C 13.839844 47.097656 13.777344 47.0625 13.714844 47.027344 C 13.605469 46.964844 13.496094 46.898438 13.386719 46.832031 C 13.277344 46.765625 13.167969 46.699219 13.058594 46.628906 C 12.925781 46.546875 12.800781 46.464844 12.671875 46.378906 C 12.519531 46.28125 12.371094 46.179688 12.222656 46.074219 C 12.203125 46.058594 12.179688 46.042969 12.160156 46.027344 C 12.113281 45.996094 12.070312 45.960938 12.023438 45.929688 C 11.964844 45.890625 11.90625 45.84375 11.847656 45.800781 C 11.578125 45.601562 11.316406 45.398438 11.058594 45.1875 C 10.929688 45.085938 10.800781 44.976562 10.675781 44.867188 C 10.574219 44.78125 10.476562 44.695312 10.378906 44.605469 C 10.339844 44.574219 10.304688 44.539062 10.265625 44.503906 C 10.226562 44.46875 10.191406 44.433594 10.152344 44.398438 C 10.128906 44.378906 10.101562 44.355469 10.078125 44.332031 C 10.019531 44.28125 9.964844 44.226562 9.914062 44.175781 C 9.800781 44.070312 9.695312 43.964844 9.585938 43.855469 C 9.46875 43.738281 9.351562 43.621094 9.242188 43.5 C 8.894531 43.132812 8.5625 42.757812 8.242188 42.367188 C 8.152344 42.253906 8.058594 42.140625 7.96875 42.023438 C 7.921875 41.960938 7.875 41.902344 7.832031 41.839844 C 7.820312 41.824219 7.808594 41.8125 7.800781 41.800781 C 7.789062 41.785156 7.78125 41.773438 7.769531 41.757812 C 7.65625 41.613281 7.550781 41.464844 7.445312 41.316406 C 7.34375 41.167969 7.242188 41.027344 7.144531 40.878906 C 7.140625 40.875 7.136719 40.867188 7.132812 40.859375 C 7.03125 40.710938 6.933594 40.558594 6.835938 40.402344 C 6.738281 40.25 6.644531 40.09375 6.550781 39.933594 C 6.523438 39.894531 6.5 39.847656 6.476562 39.808594 C 6.460938 39.785156 6.449219 39.765625 6.441406 39.742188 C 6.4375 39.742188 6.4375 39.742188 6.4375 39.742188 C 6.390625 39.664062 6.351562 39.589844 6.308594 39.515625 C 6.277344 39.460938 6.25 39.40625 6.222656 39.355469 C 6.167969 39.257812 6.117188 39.160156 6.066406 39.0625 C 6.03125 39.003906 6 38.945312 5.972656 38.886719 C 5.886719 38.714844 5.800781 38.546875 5.71875 38.375 C 5.6875 38.308594 5.65625 38.238281 5.625 38.171875 C 5.574219 38.070312 5.53125 37.96875 5.484375 37.867188 C 5.335938 37.523438 5.191406 37.171875 5.058594 36.820312 C 5 36.65625 4.9375 36.488281 4.882812 36.324219 C 4.800781 36.097656 4.726562 35.871094 4.65625 35.636719 C 5.792969 35.371094 6.984375 35.3125 8.160156 35.472656 C 8.828125 40.371094 11.386719 44.796875 15.28125 47.835938 C 15.210938 47.804688 15.140625 47.773438 15.070312 47.742188 Z M 13.378906 36.371094 C 12.164062 35.441406 10.761719 34.789062 9.257812 34.449219 C 9.214844 33.9375 9.1875 33.414062 9.1875 32.890625 C 9.1875 32.042969 9.253906 31.191406 9.371094 30.355469 C 9.644531 30.332031 9.925781 30.324219 10.207031 30.324219 C 11.550781 30.324219 12.859375 30.546875 14.101562 30.988281 C 13.617188 32.574219 13.371094 34.230469 13.371094 35.914062 C 13.375 36.066406 13.375 36.21875 13.378906 36.371094 Z M 16.226562 47.046875 C 12.574219 44.285156 10.140625 40.234375 9.417969 35.730469 C 10.953125 36.152344 12.355469 36.949219 13.511719 38.078125 C 13.859375 40.78125 14.859375 43.378906 16.429688 45.613281 C 16.402344 46.09375 16.332031 46.574219 16.226562 47.046875 Z M 20.183594 47.945312 C 19.238281 47.152344 18.390625 46.25 17.65625 45.253906 C 17.613281 45.199219 17.570312 45.144531 17.535156 45.089844 C 17.042969 44.410156 16.613281 43.695312 16.238281 42.953125 L 16.238281 42.949219 C 15.792969 42.058594 15.433594 41.132812 15.164062 40.175781 C 14.9375 39.371094 14.777344 38.546875 14.683594 37.714844 C 14.675781 37.648438 14.667969 37.585938 14.664062 37.519531 C 14.605469 36.988281 14.578125 36.449219 14.578125 35.914062 C 14.578125 34.390625 14.796875 32.894531 15.21875 31.457031 C 16.828125 32.226562 18.246094 33.359375 19.351562 34.769531 C 18.960938 36.117188 18.761719 37.515625 18.761719 38.9375 C 18.761719 41.648438 19.492188 44.289062 20.882812 46.589844 C 20.679688 47.054688 20.445312 47.511719 20.183594 47.945312 Z M 23.597656 27.957031 C 22.238281 26.710938 20.644531 25.722656 18.933594 25.058594 C 20.265625 23.664062 21.859375 22.515625 23.597656 21.699219 C 25.335938 22.515625 26.925781 23.664062 28.261719 25.058594 C 26.550781 25.722656 24.957031 26.710938 23.597656 27.957031 Z M 29.113281 26.027344 C 30.167969 27.320312 30.996094 28.761719 31.585938 30.3125 C 29.984375 31.050781 28.550781 32.117188 27.382812 33.441406 C 26.707031 31.738281 25.710938 30.160156 24.453125 28.808594 C 25.804688 27.582031 27.398438 26.628906 29.113281 26.027344 Z M 22.738281 28.808594 C 21.484375 30.160156 20.488281 31.738281 19.8125 33.441406 C 18.640625 32.117188 17.210938 31.050781 15.609375 30.3125 C 16.199219 28.761719 17.027344 27.324219 18.082031 26.027344 C 19.796875 26.628906 21.390625 27.582031 22.738281 28.808594 Z M 25.128906 46.222656 C 25.074219 46.308594 25.019531 46.394531 24.960938 46.476562 C 24.554688 47.09375 24.101562 47.675781 23.597656 48.214844 C 23.09375 47.675781 22.636719 47.09375 22.234375 46.476562 C 22.175781 46.394531 22.121094 46.308594 22.066406 46.222656 C 21.832031 45.851562 21.613281 45.46875 21.417969 45.074219 C 20.464844 43.183594 19.964844 41.082031 19.964844 38.9375 C 19.964844 37.976562 20.0625 37.03125 20.257812 36.101562 C 20.347656 35.671875 20.460938 35.246094 20.59375 34.824219 C 20.625 34.730469 20.65625 34.636719 20.6875 34.542969 C 21.296875 32.738281 22.296875 31.066406 23.597656 29.660156 C 24.898438 31.066406 25.894531 32.738281 26.507812 34.542969 C 26.539062 34.636719 26.570312 34.730469 26.601562 34.824219 C 26.734375 35.246094 26.84375 35.671875 26.933594 36.101562 C 27.128906 37.03125 27.230469 37.976562 27.230469 38.9375 C 27.230469 41.082031 26.730469 43.183594 25.777344 45.074219 C 25.582031 45.46875 25.363281 45.851562 25.128906 46.222656 Z M 29.660156 45.089844 C 29.621094 45.144531 29.582031 45.199219 29.539062 45.253906 C 28.804688 46.25 27.957031 47.152344 27.007812 47.945312 C 26.746094 47.511719 26.515625 47.054688 26.3125 46.589844 C 27.703125 44.289062 28.433594 41.648438 28.433594 38.9375 C 28.433594 37.515625 28.234375 36.117188 27.839844 34.769531 C 28.949219 33.359375 30.363281 32.226562 31.972656 31.457031 C 32.398438 32.894531 32.617188 34.390625 32.617188 35.914062 C 32.617188 36.449219 32.589844 36.988281 32.53125 37.519531 C 32.527344 37.582031 32.519531 37.648438 32.511719 37.714844 C 32.417969 38.546875 32.257812 39.371094 32.03125 40.175781 C 31.757812 41.132812 31.402344 42.058594 30.953125 42.949219 L 30.953125 42.953125 C 30.582031 43.695312 30.148438 44.414062 29.660156 45.089844 Z M 30.96875 47.046875 C 30.859375 46.574219 30.792969 46.09375 30.765625 45.613281 C 32.332031 43.378906 33.335938 40.78125 33.679688 38.078125 C 34.839844 36.949219 36.242188 36.152344 37.777344 35.730469 C 37.050781 40.234375 34.617188 44.285156 30.96875 47.046875 Z M 33.09375 30.988281 C 34.335938 30.546875 35.644531 30.324219 36.988281 30.324219 C 37.269531 30.324219 37.550781 30.332031 37.820312 30.355469 C 37.941406 31.191406 38.003906 32.042969 38.003906 32.890625 C 38.003906 33.414062 37.980469 33.933594 37.933594 34.449219 C 36.429688 34.789062 35.03125 35.441406 33.8125 36.371094 C 33.816406 36.21875 33.820312 36.066406 33.820312 35.914062 C 33.820312 34.230469 33.574219 32.574219 33.09375 30.988281 Z M 42.3125 36.328125 C 42.257812 36.492188 42.195312 36.660156 42.136719 36.824219 C 42.003906 37.175781 41.859375 37.523438 41.707031 37.867188 C 41.664062 37.96875 41.621094 38.070312 41.570312 38.171875 C 41.539062 38.238281 41.507812 38.308594 41.476562 38.378906 C 41.394531 38.546875 41.308594 38.71875 41.222656 38.886719 C 41.191406 38.945312 41.160156 39.007812 41.128906 39.0625 C 41.078125 39.160156 41.027344 39.257812 40.972656 39.355469 C 40.945312 39.410156 40.914062 39.460938 40.886719 39.515625 C 40.84375 39.589844 40.800781 39.667969 40.757812 39.742188 C 40.757812 39.742188 40.757812 39.746094 40.753906 39.746094 C 40.746094 39.765625 40.730469 39.789062 40.71875 39.808594 C 40.695312 39.851562 40.667969 39.894531 40.644531 39.933594 C 40.550781 40.09375 40.457031 40.25 40.359375 40.40625 C 40.261719 40.558594 40.164062 40.710938 40.0625 40.859375 C 40.058594 40.867188 40.054688 40.875 40.050781 40.878906 C 39.953125 41.027344 39.851562 41.171875 39.75 41.316406 C 39.644531 41.464844 39.539062 41.613281 39.425781 41.757812 L 39.421875 41.757812 C 39.414062 41.773438 39.40625 41.789062 39.394531 41.800781 C 39.386719 41.816406 39.375 41.828125 39.363281 41.839844 C 39.316406 41.902344 39.273438 41.964844 39.226562 42.023438 C 39.136719 42.140625 39.042969 42.253906 38.953125 42.367188 C 38.632812 42.757812 38.300781 43.136719 37.953125 43.5 C 37.84375 43.621094 37.726562 43.742188 37.609375 43.855469 C 37.5 43.964844 37.394531 44.070312 37.28125 44.175781 C 37.230469 44.230469 37.171875 44.28125 37.117188 44.332031 C 37.089844 44.355469 37.066406 44.378906 37.042969 44.402344 C 37.003906 44.4375 36.964844 44.472656 36.925781 44.507812 C 36.890625 44.539062 36.855469 44.574219 36.816406 44.605469 C 36.71875 44.695312 36.621094 44.78125 36.519531 44.867188 C 36.390625 44.976562 36.265625 45.085938 36.136719 45.1875 C 35.878906 45.398438 35.617188 45.605469 35.347656 45.804688 C 35.289062 45.847656 35.230469 45.890625 35.171875 45.929688 C 35.125 45.960938 35.082031 45.996094 35.035156 46.03125 C 35.011719 46.042969 34.992188 46.058594 34.96875 46.074219 C 34.824219 46.179688 34.675781 46.28125 34.523438 46.378906 C 34.394531 46.464844 34.265625 46.546875 34.136719 46.628906 C 34.027344 46.699219 33.917969 46.769531 33.804688 46.832031 C 33.699219 46.902344 33.589844 46.964844 33.480469 47.027344 C 33.417969 47.066406 33.351562 47.101562 33.289062 47.136719 C 33.15625 47.210938 33.027344 47.28125 32.894531 47.351562 C 32.867188 47.367188 32.84375 47.378906 32.816406 47.390625 C 32.664062 47.472656 32.511719 47.554688 32.351562 47.628906 C 32.347656 47.632812 32.34375 47.636719 32.335938 47.636719 C 32.265625 47.675781 32.195312 47.707031 32.125 47.742188 C 32.054688 47.777344 31.984375 47.808594 31.914062 47.839844 C 35.808594 44.800781 38.367188 40.371094 39.035156 35.472656 C 40.210938 35.316406 41.402344 35.371094 42.539062 35.640625 C 42.46875 35.871094 42.394531 36.101562 42.3125 36.328125 Z M 43.371094 30.816406 C 43.363281 30.980469 43.351562 31.144531 43.339844 31.308594 C 43.324219 31.472656 43.3125 31.636719 43.296875 31.796875 C 43.285156 31.917969 43.273438 32.039062 43.257812 32.15625 C 43.257812 32.175781 43.257812 32.195312 43.253906 32.210938 C 43.238281 32.347656 43.21875 32.488281 43.199219 32.625 C 43.199219 32.632812 43.199219 32.644531 43.195312 32.652344 C 43.179688 32.769531 43.160156 32.890625 43.140625 33.007812 C 43.101562 33.257812 43.058594 33.507812 43.007812 33.757812 L 42.972656 33.949219 C 42.933594 34.125 42.894531 34.300781 42.851562 34.476562 C 41.652344 34.1875 40.402344 34.109375 39.160156 34.242188 C 39.191406 33.796875 39.210938 33.34375 39.210938 32.890625 C 39.210938 32.089844 39.160156 31.292969 39.058594 30.507812 C 39.023438 30.234375 38.984375 29.964844 38.9375 29.695312 C 38.914062 29.546875 38.886719 29.402344 38.859375 29.257812 C 38.707031 29.234375 38.558594 29.214844 38.410156 29.195312 C 38.148438 29.164062 37.878906 29.144531 37.601562 29.132812 C 37.398438 29.121094 37.195312 29.117188 36.988281 29.117188 C 35.507812 29.117188 34.070312 29.363281 32.703125 29.851562 C 32.125 28.347656 31.339844 26.941406 30.355469 25.660156 C 30.171875 25.414062 29.972656 25.171875 29.773438 24.9375 C 29.6875 24.835938 29.597656 24.734375 29.507812 24.636719 C 28.246094 23.21875 26.730469 22.011719 25.066406 21.089844 C 24.664062 20.871094 24.257812 20.671875 23.84375 20.480469 L 23.726562 20.429688 L 23.722656 20.429688 C 23.683594 20.410156 23.640625 20.390625 23.597656 20.375 C 23.558594 20.390625 23.511719 20.410156 23.472656 20.429688 L 23.46875 20.429688 L 23.351562 20.480469 C 22.9375 20.671875 22.53125 20.871094 22.128906 21.089844 C 20.46875 22.011719 18.953125 23.21875 17.6875 24.636719 C 17.597656 24.734375 17.511719 24.835938 17.421875 24.9375 C 17.222656 25.171875 17.027344 25.414062 16.839844 25.660156 C 15.855469 26.941406 15.070312 28.347656 14.492188 29.851562 C 13.125 29.363281 11.6875 29.117188 10.207031 29.117188 C 10 29.117188 9.796875 29.121094 9.59375 29.132812 C 9.320312 29.144531 9.046875 29.164062 8.785156 29.195312 C 8.636719 29.214844 8.488281 29.234375 8.339844 29.257812 C 8.308594 29.402344 8.28125 29.546875 8.257812 29.695312 C 8.210938 29.964844 8.171875 30.234375 8.136719 30.507812 C 8.035156 31.292969 7.988281 32.089844 7.988281 32.890625 C 7.988281 33.34375 8.003906 33.796875 8.039062 34.242188 C 6.792969 34.113281 5.542969 34.1875 4.34375 34.476562 C 4.300781 34.300781 4.261719 34.125 4.226562 33.949219 L 4.1875 33.757812 C 4.136719 33.507812 4.09375 33.257812 4.054688 33.007812 C 4.035156 32.890625 4.015625 32.769531 4 32.652344 C 3.996094 32.644531 3.996094 32.632812 3.996094 32.625 C 3.976562 32.488281 3.960938 32.347656 3.941406 32.210938 C 3.941406 32.195312 3.941406 32.175781 3.9375 32.15625 C 3.921875 32.039062 3.910156 31.917969 3.898438 31.796875 C 3.882812 31.636719 3.871094 31.472656 3.859375 31.308594 C 3.84375 31.144531 3.832031 30.980469 3.828125 30.816406 C 3.8125 30.503906 3.804688 30.191406 3.804688 29.871094 C 3.804688 29.683594 3.808594 29.511719 3.8125 29.34375 L 3.816406 29.339844 C 3.8125 29.324219 3.816406 29.3125 3.816406 29.296875 C 3.816406 29.234375 3.820312 29.179688 3.820312 29.117188 C 3.828125 28.921875 3.839844 28.730469 3.851562 28.535156 C 3.859375 28.433594 3.863281 28.339844 3.871094 28.242188 C 3.878906 28.144531 3.890625 28.046875 3.898438 27.949219 C 3.90625 27.871094 3.914062 27.792969 3.921875 27.71875 C 3.929688 27.671875 3.933594 27.625 3.941406 27.582031 C 3.941406 27.558594 3.941406 27.539062 3.945312 27.515625 C 3.949219 27.460938 3.957031 27.410156 3.964844 27.359375 C 3.964844 27.359375 3.964844 27.359375 3.964844 27.355469 C 3.984375 27.203125 4.003906 27.050781 4.027344 26.898438 C 4.035156 26.859375 4.039062 26.8125 4.046875 26.773438 L 4.054688 26.726562 C 4.054688 26.710938 4.058594 26.699219 4.0625 26.6875 C 4.085938 26.527344 4.113281 26.371094 4.144531 26.214844 C 4.175781 26.046875 4.207031 25.882812 4.242188 25.71875 C 4.246094 25.710938 4.246094 25.707031 4.246094 25.699219 C 4.28125 25.527344 4.320312 25.359375 4.363281 25.191406 C 4.363281 25.1875 4.367188 25.1875 4.367188 25.183594 C 4.402344 25.03125 4.441406 24.875 4.484375 24.722656 L 4.601562 24.304688 C 4.609375 24.273438 4.617188 24.242188 4.628906 24.207031 C 4.746094 23.804688 4.878906 23.40625 5.023438 23.019531 C 5.082031 22.859375 5.144531 22.703125 5.207031 22.546875 C 5.21875 22.511719 5.230469 22.476562 5.246094 22.445312 C 5.3125 22.285156 5.375 22.125 5.445312 21.96875 C 5.457031 21.941406 5.46875 21.910156 5.484375 21.878906 C 5.558594 21.707031 5.640625 21.535156 5.722656 21.367188 C 5.8125 21.179688 5.902344 20.992188 6 20.808594 C 6 20.800781 6.007812 20.789062 6.011719 20.785156 C 6.089844 20.628906 6.171875 20.476562 6.257812 20.324219 C 6.367188 20.125 6.480469 19.921875 6.597656 19.726562 C 6.597656 19.726562 6.597656 19.726562 6.601562 19.726562 C 6.710938 19.542969 6.824219 19.363281 6.9375 19.183594 C 7.054688 19.003906 7.171875 18.828125 7.292969 18.652344 C 7.398438 18.496094 7.507812 18.34375 7.613281 18.195312 C 7.644531 18.152344 7.675781 18.109375 7.710938 18.066406 C 7.824219 17.917969 7.933594 17.769531 8.046875 17.628906 C 8.179688 17.460938 8.3125 17.296875 8.449219 17.136719 C 8.449219 17.132812 8.453125 17.128906 8.457031 17.128906 C 8.589844 16.96875 8.726562 16.8125 8.867188 16.65625 C 8.992188 16.515625 9.121094 16.378906 9.25 16.242188 C 9.816406 15.644531 10.421875 15.085938 11.058594 14.566406 C 11.132812 14.503906 11.210938 14.441406 11.289062 14.378906 C 11.394531 14.292969 11.503906 14.207031 11.613281 14.125 C 11.71875 14.042969 11.824219 13.964844 11.933594 13.890625 C 12.039062 13.8125 12.144531 13.738281 12.253906 13.660156 C 12.371094 13.578125 12.488281 13.496094 12.605469 13.417969 C 12.6875 13.363281 12.765625 13.308594 12.847656 13.261719 C 13.105469 13.09375 13.367188 12.929688 13.632812 12.777344 C 13.707031 12.730469 13.785156 12.6875 13.859375 12.648438 C 14.007812 12.558594 14.160156 12.476562 14.3125 12.394531 C 14.417969 12.339844 14.523438 12.285156 14.632812 12.230469 C 14.75 12.167969 14.871094 12.109375 14.992188 12.054688 C 15.097656 12 15.207031 11.949219 15.316406 11.898438 C 15.691406 11.722656 16.078125 11.558594 16.464844 11.410156 C 16.582031 11.363281 16.703125 11.320312 16.824219 11.277344 C 17.074219 11.183594 17.328125 11.097656 17.585938 11.015625 C 17.710938 10.976562 17.839844 10.933594 17.96875 10.898438 C 18.09375 10.859375 18.226562 10.820312 18.351562 10.785156 C 18.761719 10.671875 19.175781 10.574219 19.597656 10.484375 C 19.6875 10.46875 19.773438 10.449219 19.863281 10.433594 C 20.148438 10.375 20.4375 10.328125 20.730469 10.285156 C 20.863281 10.265625 20.996094 10.246094 21.128906 10.230469 C 21.132812 10.230469 21.132812 10.230469 21.132812 10.230469 C 21.269531 10.210938 21.40625 10.199219 21.539062 10.183594 C 21.566406 10.179688 21.597656 10.175781 21.628906 10.175781 C 21.84375 10.152344 22.0625 10.132812 22.28125 10.121094 L 22.402344 10.113281 C 22.496094 10.105469 22.59375 10.101562 22.6875 10.097656 C 22.769531 10.09375 22.851562 10.089844 22.9375 10.089844 C 23.019531 10.082031 23.101562 10.082031 23.183594 10.082031 C 23.320312 10.078125 23.460938 10.074219 23.597656 10.074219 C 23.738281 10.074219 23.875 10.078125 24.015625 10.082031 C 24.097656 10.082031 24.179688 10.082031 24.261719 10.089844 C 24.347656 10.089844 24.429688 10.09375 24.511719 10.097656 C 24.605469 10.101562 24.699219 10.105469 24.796875 10.113281 L 24.917969 10.121094 C 25.136719 10.132812 25.355469 10.152344 25.570312 10.175781 C 25.601562 10.175781 25.632812 10.179688 25.660156 10.183594 C 25.792969 10.199219 25.929688 10.210938 26.066406 10.230469 C 26.066406 10.230469 26.066406 10.230469 26.070312 10.230469 C 26.203125 10.246094 26.335938 10.265625 26.46875 10.285156 C 26.761719 10.328125 27.050781 10.375 27.335938 10.433594 C 27.425781 10.449219 27.511719 10.46875 27.601562 10.484375 C 28.023438 10.574219 28.4375 10.671875 28.847656 10.785156 C 28.972656 10.820312 29.105469 10.859375 29.230469 10.898438 C 29.359375 10.933594 29.488281 10.976562 29.613281 11.015625 C 29.871094 11.097656 30.125 11.183594 30.375 11.277344 C 30.496094 11.320312 30.617188 11.363281 30.734375 11.410156 C 31.121094 11.558594 31.507812 11.722656 31.882812 11.898438 C 31.992188 11.949219 32.101562 12 32.207031 12.054688 C 32.328125 12.109375 32.449219 12.167969 32.566406 12.230469 C 32.671875 12.285156 32.78125 12.339844 32.886719 12.394531 C 33.039062 12.476562 33.191406 12.558594 33.339844 12.648438 C 33.414062 12.6875 33.492188 12.730469 33.566406 12.777344 C 33.832031 12.929688 34.09375 13.09375 34.351562 13.261719 C 34.433594 13.308594 34.511719 13.363281 34.59375 13.417969 C 34.710938 13.496094 34.828125 13.578125 34.945312 13.660156 C 35.054688 13.738281 35.160156 13.8125 35.265625 13.890625 C 35.375 13.964844 35.480469 14.042969 35.585938 14.125 C 35.695312 14.207031 35.804688 14.292969 35.910156 14.378906 C 35.988281 14.441406 36.066406 14.503906 36.140625 14.566406 C 36.777344 15.085938 37.382812 15.644531 37.949219 16.242188 C 38.078125 16.378906 38.207031 16.515625 38.332031 16.65625 C 38.472656 16.8125 38.609375 16.96875 38.742188 17.128906 C 38.746094 17.128906 38.75 17.136719 38.75 17.136719 C 38.886719 17.296875 39.019531 17.460938 39.152344 17.628906 C 39.265625 17.769531 39.375 17.917969 39.488281 18.066406 C 39.519531 18.109375 39.554688 18.152344 39.585938 18.195312 C 39.691406 18.34375 39.800781 18.496094 39.90625 18.652344 C 40.027344 18.828125 40.144531 19.003906 40.261719 19.183594 C 40.375 19.363281 40.488281 19.542969 40.597656 19.726562 C 40.601562 19.726562 40.601562 19.726562 40.601562 19.726562 C 40.71875 19.921875 40.832031 20.125 40.941406 20.324219 C 41.027344 20.476562 41.109375 20.628906 41.1875 20.785156 C 41.195312 20.792969 41.199219 20.800781 41.199219 20.808594 C 41.296875 20.992188 41.386719 21.179688 41.476562 21.367188 C 41.558594 21.535156 41.640625 21.707031 41.714844 21.878906 C 41.726562 21.910156 41.738281 21.941406 41.753906 21.96875 C 41.824219 22.125 41.886719 22.285156 41.953125 22.445312 C 41.96875 22.476562 41.980469 22.511719 41.992188 22.546875 C 42.054688 22.703125 42.117188 22.859375 42.175781 23.019531 C 42.320312 23.40625 42.449219 23.804688 42.570312 24.207031 C 42.582031 24.242188 42.589844 24.273438 42.597656 24.304688 L 42.714844 24.722656 C 42.757812 24.875 42.796875 25.03125 42.832031 25.183594 C 42.832031 25.1875 42.835938 25.191406 42.835938 25.191406 C 42.878906 25.359375 42.914062 25.527344 42.953125 25.699219 C 42.953125 25.707031 42.953125 25.710938 42.957031 25.71875 C 42.992188 25.882812 43.023438 26.046875 43.054688 26.214844 C 43.085938 26.371094 43.113281 26.527344 43.136719 26.6875 C 43.140625 26.699219 43.144531 26.710938 43.144531 26.726562 L 43.152344 26.773438 C 43.160156 26.8125 43.164062 26.859375 43.167969 26.898438 C 43.195312 27.050781 43.214844 27.203125 43.234375 27.355469 C 43.234375 27.359375 43.234375 27.359375 43.234375 27.359375 C 43.242188 27.410156 43.25 27.460938 43.253906 27.515625 C 43.257812 27.539062 43.257812 27.558594 43.257812 27.582031 C 43.265625 27.625 43.269531 27.671875 43.277344 27.71875 C 43.285156 27.792969 43.292969 27.871094 43.300781 27.949219 C 43.308594 28.046875 43.320312 28.144531 43.328125 28.242188 C 43.335938 28.339844 43.339844 28.4375 43.347656 28.535156 C 43.359375 28.730469 43.371094 28.921875 43.378906 29.117188 C 43.378906 29.179688 43.382812 29.234375 43.382812 29.296875 C 43.382812 29.3125 43.386719 29.324219 43.382812 29.339844 L 43.386719 29.34375 C 43.390625 29.511719 43.394531 29.683594 43.394531 29.871094 C 43.390625 30.191406 43.382812 30.503906 43.371094 30.816406 Z M 43.371094 30.816406 " fill-opacity="1" fill-rule="nonzero"/></g><g fill="#fffbeb" fill-opacity="1"><g transform="translate(53.663297, 33.372006)"><g><path d="M 1.3125 -18 L 1.34375 -18.390625 L 6.96875 -18.390625 C 10.75 -18.390625 12.640625 -16.910156 12.640625 -13.953125 C 12.640625 -12.816406 11.882812 -11.570312 10.375 -10.21875 C 12.601562 -9.675781 13.71875 -8.082031 13.71875 -5.4375 C 13.71875 -3.375 13.195312 -1.953125 12.15625 -1.171875 C 11.113281 -0.390625 9.515625 0 7.359375 0 L 6.59375 0 L 1.3125 0.03125 L 1.34375 -0.34375 L 2.703125 -0.53125 C 2.878906 -0.539062 2.984375 -0.65625 3.015625 -0.875 L 3.015625 -17.484375 C 2.984375 -17.703125 2.878906 -17.820312 2.703125 -17.84375 Z M 7.890625 -10.0625 L 4.8125 -10.0625 L 4.8125 -0.390625 L 7.234375 -0.390625 C 10.367188 -0.390625 11.9375 -2.035156 11.9375 -5.328125 C 11.9375 -7.015625 11.597656 -8.222656 10.921875 -8.953125 C 10.242188 -9.691406 9.234375 -10.0625 7.890625 -10.0625 Z M 8.015625 -10.453125 C 8.660156 -10.453125 9.222656 -10.421875 9.703125 -10.359375 C 10.472656 -11.566406 10.859375 -12.710938 10.859375 -13.796875 C 10.859375 -16.597656 9.515625 -18 6.828125 -18 L 4.8125 -18 L 4.8125 -10.453125 Z M 8.015625 -10.453125 "/></g></g></g><g fill="#fffbeb" fill-opacity="1"><g transform="translate(75.108278, 33.372006)"><g><path d="M 1.234375 -18 L 1.265625 -18.390625 L 7.640625 -18.390625 C 9.453125 -18.390625 10.847656 -17.992188 11.828125 -17.203125 C 12.804688 -16.421875 13.296875 -15.25 13.296875 -13.6875 C 13.296875 -12.675781 12.90625 -11.617188 12.125 -10.515625 C 11.34375 -9.410156 10.613281 -8.703125 9.9375 -8.390625 L 14.796875 -0.46875 L 16.078125 -0.390625 C 16.078125 -0.378906 16.070312 -0.25 16.0625 0 L 13.1875 0.03125 L 8.203125 -8.0625 L 4.703125 -8.0625 L 4.703125 -0.5 L 6.546875 -0.390625 C 6.546875 -0.378906 6.535156 -0.25 6.515625 0 L 1.234375 0.03125 L 1.265625 -0.34375 L 2.625 -0.53125 C 2.75 -0.539062 2.847656 -0.617188 2.921875 -0.765625 L 2.921875 -17.578125 C 2.867188 -17.734375 2.769531 -17.820312 2.625 -17.84375 Z M 7.515625 -18 L 4.703125 -18 L 4.703125 -8.46875 L 9.203125 -8.46875 C 10.109375 -9.5 10.71875 -10.410156 11.03125 -11.203125 C 11.351562 -12.003906 11.515625 -12.78125 11.515625 -13.53125 C 11.515625 -15.007812 11.171875 -16.125 10.484375 -16.875 C 9.804688 -17.625 8.816406 -18 7.515625 -18 Z M 7.515625 -18 "/></g></g></g><g fill="#fffbeb" fill-opacity="1"><g transform="translate(98.786876, 33.372006)"><g><path d="M 0.390625 0.03125 L 0.421875 -0.34375 L 1.78125 -0.53125 C 1.90625 -0.539062 2.015625 -0.65625 2.109375 -0.875 L 7.78125 -18.390625 L 9.515625 -18.390625 L 15.5625 -0.5 L 17.375 -0.390625 C 17.375 -0.378906 17.363281 -0.25 17.34375 0 L 12.09375 0.03125 C 12.09375 -0.125 12.097656 -0.25 12.109375 -0.34375 L 13.484375 -0.53125 C 13.617188 -0.539062 13.6875 -0.644531 13.6875 -0.84375 L 12.25 -5.125 L 4.046875 -5.125 L 2.65625 -0.546875 L 5.703125 -0.390625 C 5.703125 -0.378906 5.691406 -0.25 5.671875 0 Z M 7.96875 -17.890625 L 4.203125 -5.65625 L 12.0625 -5.65625 Z M 7.96875 -17.890625 "/></g></g></g><g fill="#fffbeb" fill-opacity="1"><g transform="translate(123.464036, 33.372006)"><g><path d="M 16.65625 -18.390625 C 16.65625 -18.378906 16.664062 -18.25 16.6875 -18 L 15.03125 -17.8125 L 15.03125 -0.5 L 16.953125 -0.390625 C 16.953125 -0.378906 16.941406 -0.25 16.921875 0 L 11.671875 0.03125 C 11.671875 -0.125 11.675781 -0.25 11.6875 -0.34375 L 13.0625 -0.53125 C 13.238281 -0.539062 13.34375 -0.65625 13.375 -0.875 L 13.375 -8.859375 L 4.421875 -8.859375 L 4.421875 -0.5 L 6.359375 -0.390625 C 6.359375 -0.378906 6.347656 -0.25 6.328125 0 L 1.046875 0.03125 L 1.078125 -0.34375 L 2.4375 -0.53125 C 2.613281 -0.539062 2.722656 -0.644531 2.765625 -0.84375 L 2.765625 -17.5 C 2.722656 -17.707031 2.613281 -17.820312 2.4375 -17.84375 L 1.078125 -17.96875 L 1.046875 -18.375 L 6.328125 -18.390625 C 6.328125 -18.378906 6.335938 -18.25 6.359375 -18 L 4.421875 -17.8125 L 4.421875 -9.375 L 13.375 -9.375 L 13.375 -17.484375 C 13.34375 -17.703125 13.238281 -17.820312 13.0625 -17.84375 L 11.6875 -17.96875 C 11.675781 -18.082031 11.671875 -18.21875 11.671875 -18.375 Z M 16.65625 -18.390625 "/></g></g></g><g fill="#fffbeb" fill-opacity="1"><g transform="translate(148.535365, 33.372006)"><g><path d="M 1.3125 0.03125 L 1.34375 -0.34375 L 2.703125 -0.53125 C 2.878906 -0.539062 2.984375 -0.65625 3.015625 -0.875 L 3.046875 -0.875 L 3.046875 -17.484375 L 3.015625 -17.484375 C 2.984375 -17.703125 2.878906 -17.820312 2.703125 -17.84375 L 1.34375 -17.96875 L 1.3125 -18.375 L 6.59375 -18.390625 C 6.59375 -18.378906 6.601562 -18.25 6.625 -18 L 4.828125 -17.84375 L 4.828125 -0.5 L 6.625 -0.390625 C 6.625 -0.378906 6.613281 -0.25 6.59375 0 Z M 1.3125 0.03125 "/></g></g></g><g fill="#fffbeb" fill-opacity="1"><g transform="translate(163.542275, 33.372006)"><g><path d="M 1 -18 L 1.03125 -18.390625 L 4.5 -18.390625 L 10.78125 -5.078125 L 16.953125 -18.390625 L 20.421875 -18.390625 C 20.421875 -18.359375 20.425781 -18.296875 20.4375 -18.203125 C 20.457031 -18.117188 20.460938 -18.050781 20.453125 -18 L 19.046875 -17.84375 C 18.878906 -17.820312 18.773438 -17.707031 18.734375 -17.5 L 18.734375 -0.5 L 20.6875 -0.390625 C 20.6875 -0.378906 20.675781 -0.25 20.65625 0 L 15.375 0.03125 L 15.40625 -0.34375 L 16.765625 -0.53125 C 16.941406 -0.539062 17.046875 -0.644531 17.078125 -0.84375 L 17.078125 -17.453125 L 11.09375 -4.5 L 10.5625 -3.4375 L 9.953125 -3.4375 L 3.3125 -17.484375 L 3.3125 -0.546875 L 6.3125 -0.390625 C 6.3125 -0.378906 6.300781 -0.25 6.28125 0 L 1 0.03125 L 1.03125 -0.34375 L 2.390625 -0.53125 C 2.566406 -0.539062 2.671875 -0.65625 2.703125 -0.875 L 2.703125 -17.5 C 2.671875 -17.707031 2.566406 -17.820312 2.390625 -17.84375 Z M 1 -18 "/></g></g></g><g fill="#fffbeb" fill-opacity="1"><g transform="translate(192.213669, 33.372006)"><g/></g></g><g fill="#fffbeb" fill-opacity="1"><g transform="translate(207.141752, 33.372006)"><g><path d="M 1 -18 L 1.03125 -18.390625 L 4.5 -18.390625 L 10.78125 -5.078125 L 16.953125 -18.390625 L 20.421875 -18.390625 C 20.421875 -18.359375 20.425781 -18.296875 20.4375 -18.203125 C 20.457031 -18.117188 20.460938 -18.050781 20.453125 -18 L 19.046875 -17.84375 C 18.878906 -17.820312 18.773438 -17.707031 18.734375 -17.5 L 18.734375 -0.5 L 20.6875 -0.390625 C 20.6875 -0.378906 20.675781 -0.25 20.65625 0 L 15.375 0.03125 L 15.40625 -0.34375 L 16.765625 -0.53125 C 16.941406 -0.539062 17.046875 -0.644531 17.078125 -0.84375 L 17.078125 -17.453125 L 11.09375 -4.5 L 10.5625 -3.4375 L 9.953125 -3.4375 L 3.3125 -17.484375 L 3.3125 -0.546875 L 6.3125 -0.390625 C 6.3125 -0.378906 6.300781 -0.25 6.28125 0 L 1 0.03125 L 1.03125 -0.34375 L 2.390625 -0.53125 C 2.566406 -0.539062 2.671875 -0.65625 2.703125 -0.875 L 2.703125 -17.5 C 2.671875 -17.707031 2.566406 -17.820312 2.390625 -17.84375 Z M 1 -18 "/></g></g></g><g fill="#fffbeb" fill-opacity="1"><g transform="translate(235.813146, 33.372006)"><g><path d="M 0.390625 0.03125 L 0.421875 -0.34375 L 1.78125 -0.53125 C 1.90625 -0.539062 2.015625 -0.65625 2.109375 -0.875 L 7.78125 -18.390625 L 9.515625 -18.390625 L 15.5625 -0.5 L 17.375 -0.390625 C 17.375 -0.378906 17.363281 -0.25 17.34375 0 L 12.09375 0.03125 C 12.09375 -0.125 12.097656 -0.25 12.109375 -0.34375 L 13.484375 -0.53125 C 13.617188 -0.539062 13.6875 -0.644531 13.6875 -0.84375 L 12.25 -5.125 L 4.046875 -5.125 L 2.65625 -0.546875 L 5.703125 -0.390625 C 5.703125 -0.378906 5.691406 -0.25 5.671875 0 Z M 7.96875 -17.890625 L 4.203125 -5.65625 L 12.0625 -5.65625 Z M 7.96875 -17.890625 "/></g></g></g><g fill="#fffbeb" fill-opacity="1"><g transform="translate(260.490306, 33.372006)"><g><path d="M 14.921875 -7.59375 C 14.921875 -7.570312 14.929688 -7.441406 14.953125 -7.203125 L 13.90625 -7.0625 L 13.90625 -0.546875 C 13.601562 -0.441406 12.804688 -0.304688 11.515625 -0.140625 C 10.234375 0.0234375 9.1875 0.109375 8.375 0.109375 C 7.570312 0.109375 6.875 0.0507812 6.28125 -0.0625 C 5.6875 -0.175781 5.054688 -0.414062 4.390625 -0.78125 C 3.722656 -1.15625 3.15625 -1.644531 2.6875 -2.25 C 2.226562 -2.851562 1.835938 -3.679688 1.515625 -4.734375 C 1.203125 -5.785156 1.046875 -7.007812 1.046875 -8.40625 C 1.046875 -11.507812 1.757812 -13.925781 3.1875 -15.65625 C 4.664062 -17.476562 6.695312 -18.390625 9.28125 -18.390625 C 10.0625 -18.390625 10.910156 -18.316406 11.828125 -18.171875 C 12.753906 -18.023438 13.410156 -17.878906 13.796875 -17.734375 L 14.109375 -13.953125 L 13.609375 -13.765625 L 13.265625 -16.578125 C 11.847656 -17.546875 10.519531 -18.03125 9.28125 -18.03125 C 7.300781 -18.03125 5.734375 -17.207031 4.578125 -15.5625 C 3.421875 -13.914062 2.84375 -11.53125 2.84375 -8.40625 C 2.84375 -4.625 3.707031 -2.179688 5.4375 -1.078125 C 5.96875 -0.742188 6.453125 -0.53125 6.890625 -0.4375 C 7.335938 -0.34375 7.960938 -0.296875 8.765625 -0.296875 C 9.578125 -0.296875 10.765625 -0.40625 12.328125 -0.625 L 12.4375 -6.671875 C 12.4375 -6.878906 12.328125 -7.003906 12.109375 -7.046875 L 10.21875 -7.171875 C 10.207031 -7.273438 10.203125 -7.40625 10.203125 -7.5625 Z M 14.921875 -7.59375 "/></g></g></g><g fill="#fffbeb" fill-opacity="1"><g transform="translate(283.69591, 33.372006)"><g><path d="M 16.65625 -18.390625 C 16.65625 -18.378906 16.664062 -18.25 16.6875 -18 L 15.03125 -17.8125 L 15.03125 -0.5 L 16.953125 -0.390625 C 16.953125 -0.378906 16.941406 -0.25 16.921875 0 L 11.671875 0.03125 C 11.671875 -0.125 11.675781 -0.25 11.6875 -0.34375 L 13.0625 -0.53125 C 13.238281 -0.539062 13.34375 -0.65625 13.375 -0.875 L 13.375 -8.859375 L 4.421875 -8.859375 L 4.421875 -0.5 L 6.359375 -0.390625 C 6.359375 -0.378906 6.347656 -0.25 6.328125 0 L 1.046875 0.03125 L 1.078125 -0.34375 L 2.4375 -0.53125 C 2.613281 -0.539062 2.722656 -0.644531 2.765625 -0.84375 L 2.765625 -17.5 C 2.722656 -17.707031 2.613281 -17.820312 2.4375 -17.84375 L 1.078125 -17.96875 L 1.046875 -18.375 L 6.328125 -18.390625 C 6.328125 -18.378906 6.335938 -18.25 6.359375 -18 L 4.421875 -17.8125 L 4.421875 -9.375 L 13.375 -9.375 L 13.375 -17.484375 C 13.34375 -17.703125 13.238281 -17.820312 13.0625 -17.84375 L 11.6875 -17.96875 C 11.675781 -18.082031 11.671875 -18.21875 11.671875 -18.375 Z M 16.65625 -18.390625 "/></g></g></g><g fill="#fffbeb" fill-opacity="1"><g transform="translate(308.767225, 33.372006)"><g><path d="M 0.921875 0 L 0.65625 -0.390625 L 10.984375 -18 L 1.96875 -18 L 1.53125 -14.40625 L 1 -14.609375 L 1.34375 -18.390625 L 12.765625 -18.390625 L 13.03125 -18 L 2.6875 -0.390625 L 13.484375 -0.390625 L 14.015625 -4.734375 L 14.5 -4.59375 L 14.109375 0 Z M 0.921875 0 "/></g></g></g><g fill="#fffbeb" fill-opacity="1"><g transform="translate(331.000529, 33.372006)"><g><path d="M 0.390625 0.03125 L 0.421875 -0.34375 L 1.78125 -0.53125 C 1.90625 -0.539062 2.015625 -0.65625 2.109375 -0.875 L 7.78125 -18.390625 L 9.515625 -18.390625 L 15.5625 -0.5 L 17.375 -0.390625 C 17.375 -0.378906 17.363281 -0.25 17.34375 0 L 12.09375 0.03125 C 12.09375 -0.125 12.097656 -0.25 12.109375 -0.34375 L 13.484375 -0.53125 C 13.617188 -0.539062 13.6875 -0.644531 13.6875 -0.84375 L 12.25 -5.125 L 4.046875 -5.125 L 2.65625 -0.546875 L 5.703125 -0.390625 C 5.703125 -0.378906 5.691406 -0.25 5.671875 0 Z M 7.96875 -17.890625 L 4.203125 -5.65625 L 12.0625 -5.65625 Z M 7.96875 -17.890625 "/></g></g></g><g mask="url(#213ec9cb0e)"><g transform="matrix(1, 0, 0, 1, 54, 37)"><g clip-path="url(#412324e906)"><g fill="#fffbeb" fill-opacity="1"><g transform="translate(1.140606, 11.23281)"><g><path d="M 0.140625 0 L 0.078125 -0.40625 C 0.328125 -0.46875 0.476562 -0.519531 0.53125 -0.5625 C 0.59375 -0.601562 0.648438 -0.695312 0.703125 -0.84375 L 2.96875 -7.078125 L 3.796875 -7.078125 L 6.109375 -0.671875 C 6.140625 -0.578125 6.335938 -0.492188 6.703125 -0.421875 L 6.65625 0 L 4.3125 0 L 4.25 -0.40625 C 4.71875 -0.5 4.953125 -0.609375 4.953125 -0.734375 C 4.953125 -0.785156 4.941406 -0.859375 4.921875 -0.953125 L 4.46875 -2.25 L 1.859375 -2.25 L 1.34375 -0.828125 C 1.320312 -0.742188 1.3125 -0.6875 1.3125 -0.65625 C 1.3125 -0.625 1.332031 -0.609375 1.375 -0.609375 L 2.09375 -0.40625 L 2.046875 0 Z M 2.0625 -2.796875 L 4.296875 -2.796875 L 3.3125 -5.625 C 3.269531 -5.757812 3.25 -5.859375 3.25 -5.921875 L 3.140625 -5.921875 Z M 2.0625 -2.796875 "/></g></g></g><g clip-path="url(#6b12428b63)"><g fill="#fffbeb" fill-opacity="1"><g transform="translate(10.610147, 11.23281)"><g><path d="M 1.609375 0.234375 C 1.421875 0.441406 1.328125 0.664062 1.328125 0.90625 C 1.328125 1.15625 1.425781 1.347656 1.625 1.484375 C 1.832031 1.628906 2.175781 1.703125 2.65625 1.703125 C 3.144531 1.703125 3.523438 1.597656 3.796875 1.390625 C 4.066406 1.191406 4.203125 0.992188 4.203125 0.796875 C 4.203125 0.597656 4.085938 0.472656 3.859375 0.421875 C 3.640625 0.378906 3.289062 0.351562 2.8125 0.34375 C 2.332031 0.34375 1.929688 0.304688 1.609375 0.234375 Z M 0.75 -0.609375 C 0.75 -0.878906 0.847656 -1.140625 1.046875 -1.390625 C 1.191406 -1.566406 1.351562 -1.722656 1.53125 -1.859375 C 1.425781 -1.910156 1.332031 -1.96875 1.25 -2.03125 C 0.914062 -2.300781 0.75 -2.707031 0.75 -3.25 C 0.75 -3.789062 0.929688 -4.203125 1.296875 -4.484375 C 1.671875 -4.773438 2.132812 -4.921875 2.6875 -4.921875 C 3.175781 -4.921875 3.582031 -4.816406 3.90625 -4.609375 C 4.34375 -4.816406 4.765625 -4.925781 5.171875 -4.9375 C 5.234375 -4.820312 5.265625 -4.6875 5.265625 -4.53125 C 5.265625 -4.375 5.253906 -4.265625 5.234375 -4.203125 C 5.003906 -4.253906 4.769531 -4.28125 4.53125 -4.28125 C 4.425781 -4.28125 4.332031 -4.28125 4.25 -4.28125 C 4.4375 -4.03125 4.53125 -3.703125 4.53125 -3.296875 C 4.53125 -2.753906 4.34375 -2.335938 3.96875 -2.046875 C 3.601562 -1.765625 3.144531 -1.625 2.59375 -1.625 C 2.289062 -1.625 2.019531 -1.664062 1.78125 -1.75 C 1.582031 -1.507812 1.484375 -1.28125 1.484375 -1.0625 C 1.484375 -0.851562 1.597656 -0.734375 1.828125 -0.703125 C 2.023438 -0.660156 2.25 -0.640625 2.5 -0.640625 C 2.75 -0.640625 2.941406 -0.640625 3.078125 -0.640625 C 3.222656 -0.640625 3.398438 -0.628906 3.609375 -0.609375 C 3.828125 -0.585938 4 -0.550781 4.125 -0.5 C 4.25 -0.457031 4.378906 -0.398438 4.515625 -0.328125 C 4.765625 -0.179688 4.890625 0.0664062 4.890625 0.421875 C 4.890625 0.910156 4.644531 1.328125 4.15625 1.671875 C 3.675781 2.023438 3.023438 2.203125 2.203125 2.203125 C 1.097656 2.203125 0.546875 1.890625 0.546875 1.265625 C 0.546875 1.035156 0.613281 0.835938 0.75 0.671875 C 0.882812 0.503906 1.070312 0.332031 1.3125 0.15625 C 0.9375 0.03125 0.75 -0.222656 0.75 -0.609375 Z M 2.671875 -2.125 C 3.296875 -2.125 3.609375 -2.503906 3.609375 -3.265625 C 3.609375 -4.035156 3.273438 -4.421875 2.609375 -4.421875 C 1.984375 -4.421875 1.671875 -4.035156 1.671875 -3.265625 C 1.671875 -2.503906 2.003906 -2.125 2.671875 -2.125 Z M 2.671875 -2.125 "/></g></g></g></g><g fill="#fffbeb" fill-opacity="1"><g transform="translate(18.909857, 11.23281)"><g><path d="M 2.484375 0.09375 C 1.804688 0.09375 1.28125 -0.132812 0.90625 -0.59375 C 0.53125 -1.0625 0.34375 -1.648438 0.34375 -2.359375 C 0.34375 -3.066406 0.554688 -3.671875 0.984375 -4.171875 C 1.410156 -4.671875 1.976562 -4.921875 2.6875 -4.921875 C 3.832031 -4.921875 4.429688 -4.21875 4.484375 -2.8125 L 4.21875 -2.625 L 1.296875 -2.453125 C 1.296875 -1.210938 1.828125 -0.59375 2.890625 -0.59375 C 3.359375 -0.59375 3.8125 -0.707031 4.25 -0.9375 L 4.46875 -0.609375 C 4.238281 -0.421875 3.945312 -0.253906 3.59375 -0.109375 C 3.238281 0.0234375 2.867188 0.09375 2.484375 0.09375 Z M 1.328125 -2.921875 L 3.421875 -3.109375 C 3.484375 -3.109375 3.515625 -3.171875 3.515625 -3.296875 C 3.515625 -3.585938 3.4375 -3.84375 3.28125 -4.0625 C 3.125 -4.28125 2.859375 -4.390625 2.484375 -4.390625 C 2.109375 -4.390625 1.832031 -4.257812 1.65625 -4 C 1.488281 -3.75 1.378906 -3.390625 1.328125 -2.921875 Z M 1.328125 -2.921875 "/></g></g></g><g fill="#fffbeb" fill-opacity="1"><g transform="translate(26.443129, 11.23281)"><g><path d="M 0.46875 0 L 0.40625 -0.390625 C 0.738281 -0.460938 0.941406 -0.53125 1.015625 -0.59375 C 1.085938 -0.664062 1.125 -0.789062 1.125 -0.96875 L 1.125 -3.875 C 1.125 -4.039062 1.078125 -4.160156 0.984375 -4.234375 C 0.898438 -4.304688 0.691406 -4.375 0.359375 -4.4375 L 0.40625 -4.765625 L 1.71875 -4.890625 C 1.757812 -4.890625 1.804688 -4.796875 1.859375 -4.609375 C 1.910156 -4.421875 1.9375 -4.257812 1.9375 -4.125 L 1.9375 -4.0625 L 2.015625 -4.03125 L 2.140625 -4.171875 C 2.554688 -4.671875 3.070312 -4.921875 3.6875 -4.921875 C 4.113281 -4.921875 4.453125 -4.789062 4.703125 -4.53125 C 4.953125 -4.269531 5.078125 -3.910156 5.078125 -3.453125 L 5.078125 -0.71875 C 5.078125 -0.644531 5.09375 -0.59375 5.125 -0.5625 C 5.164062 -0.539062 5.21875 -0.523438 5.28125 -0.515625 L 5.78125 -0.390625 L 5.734375 0 L 3.578125 0 L 3.515625 -0.390625 C 3.816406 -0.453125 4 -0.519531 4.0625 -0.59375 C 4.132812 -0.664062 4.171875 -0.789062 4.171875 -0.96875 L 4.171875 -3.140625 C 4.171875 -3.460938 4.113281 -3.71875 4 -3.90625 C 3.882812 -4.09375 3.660156 -4.1875 3.328125 -4.1875 C 2.992188 -4.1875 2.632812 -4.054688 2.25 -3.796875 C 2.1875 -3.753906 2.140625 -3.722656 2.109375 -3.703125 C 2.054688 -3.640625 2.03125 -3.515625 2.03125 -3.328125 L 2.03125 -0.734375 C 2.03125 -0.660156 2.039062 -0.609375 2.0625 -0.578125 C 2.082031 -0.554688 2.140625 -0.535156 2.234375 -0.515625 L 2.671875 -0.390625 L 2.625 0 Z M 0.46875 0 "/></g></g></g><g fill="#fffbeb" fill-opacity="1"><g transform="translate(35.166407, 11.23281)"><g><path d="M 0.859375 -1.375 L 0.859375 -4.15625 L 0.203125 -4.15625 L 0.15625 -4.578125 L 0.65625 -4.703125 C 0.78125 -4.734375 0.863281 -4.804688 0.90625 -4.921875 C 0.957031 -5.046875 1.039062 -5.425781 1.15625 -6.0625 L 1.765625 -6.125 L 1.765625 -4.765625 L 3.171875 -4.765625 L 3.078125 -4.296875 L 1.765625 -4.140625 L 1.765625 -1.6875 C 1.765625 -0.988281 1.976562 -0.640625 2.40625 -0.640625 C 2.644531 -0.640625 2.898438 -0.738281 3.171875 -0.9375 L 3.390625 -0.640625 C 3.023438 -0.148438 2.582031 0.09375 2.0625 0.09375 C 1.675781 0.09375 1.378906 -0.0351562 1.171875 -0.296875 C 0.960938 -0.566406 0.859375 -0.925781 0.859375 -1.375 Z M 0.859375 -1.375 "/></g></g></g><g fill="#fffbeb" fill-opacity="1"><g transform="translate(41.408835, 11.23281)"><g/></g></g><g clip-path="url(#73f00e425a)"><g fill="#fffbeb" fill-opacity="1"><g transform="translate(46.592366, 11.23281)"><g><path d="M 1.609375 0.234375 C 1.421875 0.441406 1.328125 0.664062 1.328125 0.90625 C 1.328125 1.15625 1.425781 1.347656 1.625 1.484375 C 1.832031 1.628906 2.175781 1.703125 2.65625 1.703125 C 3.144531 1.703125 3.523438 1.597656 3.796875 1.390625 C 4.066406 1.191406 4.203125 0.992188 4.203125 0.796875 C 4.203125 0.597656 4.085938 0.472656 3.859375 0.421875 C 3.640625 0.378906 3.289062 0.351562 2.8125 0.34375 C 2.332031 0.34375 1.929688 0.304688 1.609375 0.234375 Z M 0.75 -0.609375 C 0.75 -0.878906 0.847656 -1.140625 1.046875 -1.390625 C 1.191406 -1.566406 1.351562 -1.722656 1.53125 -1.859375 C 1.425781 -1.910156 1.332031 -1.96875 1.25 -2.03125 C 0.914062 -2.300781 0.75 -2.707031 0.75 -3.25 C 0.75 -3.789062 0.929688 -4.203125 1.296875 -4.484375 C 1.671875 -4.773438 2.132812 -4.921875 2.6875 -4.921875 C 3.175781 -4.921875 3.582031 -4.816406 3.90625 -4.609375 C 4.34375 -4.816406 4.765625 -4.925781 5.171875 -4.9375 C 5.234375 -4.820312 5.265625 -4.6875 5.265625 -4.53125 C 5.265625 -4.375 5.253906 -4.265625 5.234375 -4.203125 C 5.003906 -4.253906 4.769531 -4.28125 4.53125 -4.28125 C 4.425781 -4.28125 4.332031 -4.28125 4.25 -4.28125 C 4.4375 -4.03125 4.53125 -3.703125 4.53125 -3.296875 C 4.53125 -2.753906 4.34375 -2.335938 3.96875 -2.046875 C 3.601562 -1.765625 3.144531 -1.625 2.59375 -1.625 C 2.289062 -1.625 2.019531 -1.664062 1.78125 -1.75 C 1.582031 -1.507812 1.484375 -1.28125 1.484375 -1.0625 C 1.484375 -0.851562 1.597656 -0.734375 1.828125 -0.703125 C 2.023438 -0.660156 2.25 -0.640625 2.5 -0.640625 C 2.75 -0.640625 2.941406 -0.640625 3.078125 -0.640625 C 3.222656 -0.640625 3.398438 -0.628906 3.609375 -0.609375 C 3.828125 -0.585938 4 -0.550781 4.125 -0.5 C 4.25 -0.457031 4.378906 -0.398438 4.515625 -0.328125 C 4.765625 -0.179688 4.890625 0.0664062 4.890625 0.421875 C 4.890625 0.910156 4.644531 1.328125 4.15625 1.671875 C 3.675781 2.023438 3.023438 2.203125 2.203125 2.203125 C 1.097656 2.203125 0.546875 1.890625 0.546875 1.265625 C 0.546875 1.035156 0.613281 0.835938 0.75 0.671875 C 0.882812 0.503906 1.070312 0.332031 1.3125 0.15625 C 0.9375 0.03125 0.75 -0.222656 0.75 -0.609375 Z M 2.671875 -2.125 C 3.296875 -2.125 3.609375 -2.503906 3.609375 -3.265625 C 3.609375 -4.035156 3.273438 -4.421875 2.609375 -4.421875 C 1.984375 -4.421875 1.671875 -4.035156 1.671875 -3.265625 C 1.671875 -2.503906 2.003906 -2.125 2.671875 -2.125 Z M 2.671875 -2.125 "/></g></g></g></g><g fill="#fffbeb" fill-opacity="1"><g transform="translate(54.892076, 11.23281)"><g><path d="M 2.484375 0.09375 C 1.804688 0.09375 1.28125 -0.132812 0.90625 -0.59375 C 0.53125 -1.0625 0.34375 -1.648438 0.34375 -2.359375 C 0.34375 -3.066406 0.554688 -3.671875 0.984375 -4.171875 C 1.410156 -4.671875 1.976562 -4.921875 2.6875 -4.921875 C 3.832031 -4.921875 4.429688 -4.21875 4.484375 -2.8125 L 4.21875 -2.625 L 1.296875 -2.453125 C 1.296875 -1.210938 1.828125 -0.59375 2.890625 -0.59375 C 3.359375 -0.59375 3.8125 -0.707031 4.25 -0.9375 L 4.46875 -0.609375 C 4.238281 -0.421875 3.945312 -0.253906 3.59375 -0.109375 C 3.238281 0.0234375 2.867188 0.09375 2.484375 0.09375 Z M 1.328125 -2.921875 L 3.421875 -3.109375 C 3.484375 -3.109375 3.515625 -3.171875 3.515625 -3.296875 C 3.515625 -3.585938 3.4375 -3.84375 3.28125 -4.0625 C 3.125 -4.28125 2.859375 -4.390625 2.484375 -4.390625 C 2.109375 -4.390625 1.832031 -4.257812 1.65625 -4 C 1.488281 -3.75 1.378906 -3.390625 1.328125 -2.921875 Z M 3.96875 -7.40625 L 3.96875 -7.171875 L 2.4375 -5.65625 L 2.09375 -5.90625 L 3.171875 -7.703125 Z M 3.96875 -7.40625 "/></g></g></g><g fill="#fffbeb" fill-opacity="1"><g transform="translate(62.425347, 11.23281)"><g><path d="M 0.46875 0 L 0.40625 -0.390625 C 0.738281 -0.460938 0.941406 -0.53125 1.015625 -0.59375 C 1.085938 -0.664062 1.125 -0.789062 1.125 -0.96875 L 1.125 -3.875 C 1.125 -4.039062 1.078125 -4.160156 0.984375 -4.234375 C 0.898438 -4.304688 0.691406 -4.375 0.359375 -4.4375 L 0.40625 -4.765625 L 1.71875 -4.890625 C 1.757812 -4.890625 1.804688 -4.796875 1.859375 -4.609375 C 1.910156 -4.421875 1.9375 -4.257812 1.9375 -4.125 L 1.9375 -4.0625 L 2.015625 -4.03125 L 2.140625 -4.171875 C 2.554688 -4.671875 3.070312 -4.921875 3.6875 -4.921875 C 4.113281 -4.921875 4.453125 -4.789062 4.703125 -4.53125 C 4.953125 -4.269531 5.078125 -3.910156 5.078125 -3.453125 L 5.078125 -0.71875 C 5.078125 -0.644531 5.09375 -0.59375 5.125 -0.5625 C 5.164062 -0.539062 5.21875 -0.523438 5.28125 -0.515625 L 5.78125 -0.390625 L 5.734375 0 L 3.578125 0 L 3.515625 -0.390625 C 3.816406 -0.453125 4 -0.519531 4.0625 -0.59375 C 4.132812 -0.664062 4.171875 -0.789062 4.171875 -0.96875 L 4.171875 -3.140625 C 4.171875 -3.460938 4.113281 -3.71875 4 -3.90625 C 3.882812 -4.09375 3.660156 -4.1875 3.328125 -4.1875 C 2.992188 -4.1875 2.632812 -4.054688 2.25 -3.796875 C 2.1875 -3.753906 2.140625 -3.722656 2.109375 -3.703125 C 2.054688 -3.640625 2.03125 -3.515625 2.03125 -3.328125 L 2.03125 -0.734375 C 2.03125 -0.660156 2.039062 -0.609375 2.0625 -0.578125 C 2.082031 -0.554688 2.140625 -0.535156 2.234375 -0.515625 L 2.671875 -0.390625 L 2.625 0 Z M 0.46875 0 "/></g></g></g><g fill="#fffbeb" fill-opacity="1"><g transform="translate(71.148621, 11.23281)"><g><path d="M 2.484375 0.09375 C 1.804688 0.09375 1.28125 -0.132812 0.90625 -0.59375 C 0.53125 -1.0625 0.34375 -1.648438 0.34375 -2.359375 C 0.34375 -3.066406 0.554688 -3.671875 0.984375 -4.171875 C 1.410156 -4.671875 1.976562 -4.921875 2.6875 -4.921875 C 3.832031 -4.921875 4.429688 -4.21875 4.484375 -2.8125 L 4.21875 -2.625 L 1.296875 -2.453125 C 1.296875 -1.210938 1.828125 -0.59375 2.890625 -0.59375 C 3.359375 -0.59375 3.8125 -0.707031 4.25 -0.9375 L 4.46875 -0.609375 C 4.238281 -0.421875 3.945312 -0.253906 3.59375 -0.109375 C 3.238281 0.0234375 2.867188 0.09375 2.484375 0.09375 Z M 1.328125 -2.921875 L 3.421875 -3.109375 C 3.484375 -3.109375 3.515625 -3.171875 3.515625 -3.296875 C 3.515625 -3.585938 3.4375 -3.84375 3.28125 -4.0625 C 3.125 -4.28125 2.859375 -4.390625 2.484375 -4.390625 C 2.109375 -4.390625 1.832031 -4.257812 1.65625 -4 C 1.488281 -3.75 1.378906 -3.390625 1.328125 -2.921875 Z M 3.96875 -7.40625 L 3.96875 -7.171875 L 2.4375 -5.65625 L 2.09375 -5.90625 L 3.171875 -7.703125 Z M 3.96875 -7.40625 "/></g></g></g><g fill="#fffbeb" fill-opacity="1"><g transform="translate(78.681892, 11.23281)"><g><path d="M 0.40625 0 L 0.34375 -0.390625 C 0.695312 -0.453125 0.914062 -0.519531 1 -0.59375 C 1.082031 -0.664062 1.125 -0.789062 1.125 -0.96875 L 1.125 -3.875 C 1.125 -4.039062 1.078125 -4.160156 0.984375 -4.234375 C 0.890625 -4.316406 0.65625 -4.382812 0.28125 -4.4375 L 0.34375 -4.765625 L 1.71875 -4.890625 C 1.757812 -4.890625 1.804688 -4.820312 1.859375 -4.6875 C 1.910156 -4.5625 1.9375 -4.425781 1.9375 -4.28125 C 1.9375 -4.132812 1.925781 -3.96875 1.90625 -3.78125 L 1.984375 -3.75 L 2.109375 -4.046875 C 2.234375 -4.304688 2.414062 -4.515625 2.65625 -4.671875 C 2.90625 -4.835938 3.15625 -4.921875 3.40625 -4.921875 C 3.664062 -4.921875 3.898438 -4.863281 4.109375 -4.75 C 4.109375 -4.207031 4.054688 -3.660156 3.953125 -3.109375 L 3.46875 -3.046875 C 3.414062 -3.617188 3.359375 -3.941406 3.296875 -4.015625 C 3.242188 -4.085938 3.15625 -4.125 3.03125 -4.125 C 2.914062 -4.125 2.769531 -4.066406 2.59375 -3.953125 C 2.425781 -3.847656 2.289062 -3.734375 2.1875 -3.609375 C 2.082031 -3.484375 2.03125 -3.28125 2.03125 -3 L 2.03125 -0.71875 C 2.03125 -0.632812 2.046875 -0.582031 2.078125 -0.5625 C 2.117188 -0.539062 2.171875 -0.523438 2.234375 -0.515625 L 3.140625 -0.390625 L 3.109375 0 Z M 0.40625 0 "/></g></g></g><g fill="#fffbeb" fill-opacity="1"><g transform="translate(85.751267, 11.23281)"><g><path d="M 0.421875 -1.234375 C 0.421875 -1.742188 0.632812 -2.117188 1.0625 -2.359375 C 1.5 -2.609375 2.203125 -2.738281 3.171875 -2.75 L 3.171875 -3.078125 C 3.171875 -3.953125 2.851562 -4.390625 2.21875 -4.390625 C 1.914062 -4.390625 1.722656 -4.34375 1.640625 -4.25 C 1.566406 -4.164062 1.488281 -3.878906 1.40625 -3.390625 L 0.859375 -3.453125 C 0.804688 -3.660156 0.78125 -3.875 0.78125 -4.09375 C 0.78125 -4.320312 0.78125 -4.472656 0.78125 -4.546875 C 1.175781 -4.796875 1.695312 -4.921875 2.34375 -4.921875 C 2.988281 -4.921875 3.4375 -4.796875 3.6875 -4.546875 C 3.945312 -4.296875 4.078125 -3.882812 4.078125 -3.3125 L 4.078125 -1 C 4.078125 -0.820312 4.117188 -0.695312 4.203125 -0.625 C 4.285156 -0.5625 4.5 -0.492188 4.84375 -0.421875 L 4.78125 -0.09375 L 3.5625 0.03125 C 3.5 0.03125 3.429688 -0.03125 3.359375 -0.15625 C 3.285156 -0.289062 3.25 -0.410156 3.25 -0.515625 C 3.25 -0.628906 3.25 -0.710938 3.25 -0.765625 L 3.171875 -0.796875 L 3.046875 -0.609375 C 2.734375 -0.140625 2.300781 0.09375 1.75 0.09375 C 1.375 0.09375 1.054688 -0.0195312 0.796875 -0.25 C 0.546875 -0.488281 0.421875 -0.816406 0.421875 -1.234375 Z M 1.40625 -1.328125 C 1.40625 -1.085938 1.46875 -0.90625 1.59375 -0.78125 C 1.71875 -0.65625 1.894531 -0.59375 2.125 -0.59375 C 2.363281 -0.59375 2.632812 -0.707031 2.9375 -0.9375 C 3.09375 -1.0625 3.171875 -1.1875 3.171875 -1.3125 L 3.171875 -2.3125 C 2.554688 -2.289062 2.109375 -2.207031 1.828125 -2.0625 C 1.546875 -1.914062 1.40625 -1.671875 1.40625 -1.328125 Z M 1.40625 -1.328125 "/></g></g></g><g fill="#fffbeb" fill-opacity="1"><g transform="translate(93.62742, 11.23281)"><g><path d="M 0.40625 0 L 0.34375 -0.390625 C 0.675781 -0.460938 0.875 -0.53125 0.9375 -0.59375 C 1.007812 -0.664062 1.046875 -0.789062 1.046875 -0.96875 L 1.046875 -6.828125 C 1.046875 -6.960938 0.988281 -7.0625 0.875 -7.125 C 0.769531 -7.1875 0.570312 -7.25 0.28125 -7.3125 L 0.34375 -7.640625 C 1.0625 -7.734375 1.5625 -7.78125 1.84375 -7.78125 L 1.953125 -7.671875 L 1.953125 -0.71875 C 1.953125 -0.644531 1.96875 -0.59375 2 -0.5625 C 2.039062 -0.539062 2.09375 -0.523438 2.15625 -0.515625 L 2.65625 -0.390625 L 2.609375 0 Z M 0.40625 0 "/></g></g></g><g fill="#fffbeb" fill-opacity="1"><g transform="translate(99.395871, 11.23281)"><g/></g></g><g fill="#fffbeb" fill-opacity="1"><g transform="translate(104.579398, 11.23281)"><g><path d="M 0.140625 0 L 0.078125 -0.40625 C 0.328125 -0.46875 0.476562 -0.519531 0.53125 -0.5625 C 0.59375 -0.601562 0.648438 -0.695312 0.703125 -0.84375 L 2.96875 -7.078125 L 3.796875 -7.078125 L 6.109375 -0.671875 C 6.140625 -0.578125 6.335938 -0.492188 6.703125 -0.421875 L 6.65625 0 L 4.3125 0 L 4.25 -0.40625 C 4.71875 -0.5 4.953125 -0.609375 4.953125 -0.734375 C 4.953125 -0.785156 4.941406 -0.859375 4.921875 -0.953125 L 4.46875 -2.25 L 1.859375 -2.25 L 1.34375 -0.828125 C 1.320312 -0.742188 1.3125 -0.6875 1.3125 -0.65625 C 1.3125 -0.625 1.332031 -0.609375 1.375 -0.609375 L 2.09375 -0.40625 L 2.046875 0 Z M 2.0625 -2.796875 L 4.296875 -2.796875 L 3.3125 -5.625 C 3.269531 -5.757812 3.25 -5.859375 3.25 -5.921875 L 3.140625 -5.921875 Z M 2.0625 -2.796875 "/></g></g></g><g fill="#fffbeb" fill-opacity="1"><g transform="translate(114.048944, 11.23281)"><g><path d="M 0.21875 0 L 0.140625 -0.40625 C 0.410156 -0.476562 0.59375 -0.535156 0.6875 -0.578125 C 0.78125 -0.617188 0.867188 -0.695312 0.953125 -0.8125 L 2.734375 -3.4375 L 0.921875 -6.140625 C 0.828125 -6.285156 0.742188 -6.378906 0.671875 -6.421875 C 0.609375 -6.472656 0.460938 -6.523438 0.234375 -6.578125 L 0.3125 -6.984375 L 2.71875 -6.984375 L 2.75 -6.578125 L 2.078125 -6.390625 C 2.023438 -6.378906 2 -6.351562 2 -6.3125 C 2 -6.269531 2.023438 -6.21875 2.078125 -6.15625 L 3.21875 -4.4375 C 3.289062 -4.34375 3.328125 -4.253906 3.328125 -4.171875 L 3.421875 -4.171875 L 4.546875 -5.8125 C 4.710938 -6.039062 4.796875 -6.191406 4.796875 -6.265625 C 4.796875 -6.335938 4.75 -6.394531 4.65625 -6.4375 C 4.570312 -6.476562 4.414062 -6.523438 4.1875 -6.578125 L 4.25 -6.984375 L 6.203125 -6.984375 L 6.25 -6.5625 C 6.164062 -6.539062 6.09375 -6.519531 6.03125 -6.5 C 5.976562 -6.488281 5.925781 -6.472656 5.875 -6.453125 C 5.820312 -6.429688 5.78125 -6.414062 5.75 -6.40625 C 5.726562 -6.394531 5.695312 -6.367188 5.65625 -6.328125 C 5.625 -6.285156 5.601562 -6.257812 5.59375 -6.25 C 5.582031 -6.238281 5.554688 -6.203125 5.515625 -6.140625 C 5.484375 -6.085938 5.460938 -6.050781 5.453125 -6.03125 L 3.796875 -3.609375 L 5.75 -0.6875 C 5.820312 -0.582031 6.050781 -0.492188 6.4375 -0.421875 L 6.40625 0 L 3.96875 0 L 3.90625 -0.40625 C 4.21875 -0.46875 4.394531 -0.519531 4.4375 -0.5625 C 4.476562 -0.613281 4.5 -0.664062 4.5 -0.71875 C 4.5 -0.769531 4.476562 -0.832031 4.4375 -0.90625 L 3.3125 -2.578125 C 3.238281 -2.679688 3.203125 -2.78125 3.203125 -2.875 L 3.109375 -2.875 L 1.71875 -0.84375 C 1.65625 -0.769531 1.625 -0.707031 1.625 -0.65625 C 1.625 -0.601562 1.660156 -0.566406 1.734375 -0.546875 L 2.203125 -0.40625 L 2.171875 0 Z M 0.21875 0 "/></g></g></g><g fill="#fffbeb" fill-opacity="1"><g transform="translate(123.205864, 11.23281)"><g><path d="M 0.140625 0 L 0.078125 -0.40625 C 0.328125 -0.46875 0.476562 -0.519531 0.53125 -0.5625 C 0.59375 -0.601562 0.648438 -0.695312 0.703125 -0.84375 L 2.96875 -7.078125 L 3.796875 -7.078125 L 6.109375 -0.671875 C 6.140625 -0.578125 6.335938 -0.492188 6.703125 -0.421875 L 6.65625 0 L 4.3125 0 L 4.25 -0.40625 C 4.71875 -0.5 4.953125 -0.609375 4.953125 -0.734375 C 4.953125 -0.785156 4.941406 -0.859375 4.921875 -0.953125 L 4.46875 -2.25 L 1.859375 -2.25 L 1.34375 -0.828125 C 1.320312 -0.742188 1.3125 -0.6875 1.3125 -0.65625 C 1.3125 -0.625 1.332031 -0.609375 1.375 -0.609375 L 2.09375 -0.40625 L 2.046875 0 Z M 2.0625 -2.796875 L 4.296875 -2.796875 L 3.3125 -5.625 C 3.269531 -5.757812 3.25 -5.859375 3.25 -5.921875 L 3.140625 -5.921875 Z M 2.0625 -2.796875 "/></g></g></g><g fill="#fffbeb" fill-opacity="1"><g transform="translate(132.675403, 11.23281)"><g/></g></g><g fill="#fffbeb" fill-opacity="1"><g transform="translate(137.858931, 11.23281)"><g><path d="M 0.5 0 L 0.4375 -0.390625 C 0.800781 -0.453125 1.019531 -0.519531 1.09375 -0.59375 C 1.164062 -0.664062 1.203125 -0.804688 1.203125 -1.015625 L 1.203125 -5.96875 C 1.203125 -6.175781 1.164062 -6.316406 1.09375 -6.390625 C 1.019531 -6.460938 0.800781 -6.53125 0.4375 -6.59375 L 0.5 -6.984375 L 3.3125 -6.984375 C 4.03125 -6.984375 4.566406 -6.8125 4.921875 -6.46875 C 5.273438 -6.125 5.453125 -5.632812 5.453125 -5 C 5.453125 -4.363281 5.21875 -3.820312 4.75 -3.375 C 4.28125 -2.925781 3.601562 -2.703125 2.71875 -2.703125 L 2.1875 -2.703125 L 2.1875 -0.78125 C 2.1875 -0.613281 2.253906 -0.523438 2.390625 -0.515625 L 3.40625 -0.390625 L 3.359375 0 Z M 2.1875 -3.234375 L 2.625 -3.234375 C 3.070312 -3.234375 3.460938 -3.335938 3.796875 -3.546875 C 4.179688 -3.796875 4.375 -4.253906 4.375 -4.921875 C 4.375 -5.535156 4.210938 -5.953125 3.890625 -6.171875 C 3.617188 -6.359375 3.328125 -6.453125 3.015625 -6.453125 L 2.390625 -6.453125 C 2.253906 -6.453125 2.1875 -6.367188 2.1875 -6.203125 Z M 2.1875 -3.234375 "/></g></g></g><g fill="#fffbeb" fill-opacity="1"><g transform="translate(146.209072, 11.23281)"><g><path d="M 0.40625 0 L 0.34375 -0.390625 C 0.695312 -0.453125 0.914062 -0.519531 1 -0.59375 C 1.082031 -0.664062 1.125 -0.789062 1.125 -0.96875 L 1.125 -3.875 C 1.125 -4.039062 1.078125 -4.160156 0.984375 -4.234375 C 0.890625 -4.316406 0.65625 -4.382812 0.28125 -4.4375 L 0.34375 -4.765625 L 1.71875 -4.890625 C 1.757812 -4.890625 1.804688 -4.820312 1.859375 -4.6875 C 1.910156 -4.5625 1.9375 -4.425781 1.9375 -4.28125 C 1.9375 -4.132812 1.925781 -3.96875 1.90625 -3.78125 L 1.984375 -3.75 L 2.109375 -4.046875 C 2.234375 -4.304688 2.414062 -4.515625 2.65625 -4.671875 C 2.90625 -4.835938 3.15625 -4.921875 3.40625 -4.921875 C 3.664062 -4.921875 3.898438 -4.863281 4.109375 -4.75 C 4.109375 -4.207031 4.054688 -3.660156 3.953125 -3.109375 L 3.46875 -3.046875 C 3.414062 -3.617188 3.359375 -3.941406 3.296875 -4.015625 C 3.242188 -4.085938 3.15625 -4.125 3.03125 -4.125 C 2.914062 -4.125 2.769531 -4.066406 2.59375 -3.953125 C 2.425781 -3.847656 2.289062 -3.734375 2.1875 -3.609375 C 2.082031 -3.484375 2.03125 -3.28125 2.03125 -3 L 2.03125 -0.71875 C 2.03125 -0.632812 2.046875 -0.582031 2.078125 -0.5625 C 2.117188 -0.539062 2.171875 -0.523438 2.234375 -0.515625 L 3.140625 -0.390625 L 3.109375 0 Z M 0.40625 0 "/></g></g></g><g fill="#fffbeb" fill-opacity="1"><g transform="translate(153.278447, 11.23281)"><g><path d="M 2.484375 0.09375 C 1.804688 0.09375 1.28125 -0.132812 0.90625 -0.59375 C 0.53125 -1.0625 0.34375 -1.648438 0.34375 -2.359375 C 0.34375 -3.066406 0.554688 -3.671875 0.984375 -4.171875 C 1.410156 -4.671875 1.976562 -4.921875 2.6875 -4.921875 C 3.832031 -4.921875 4.429688 -4.21875 4.484375 -2.8125 L 4.21875 -2.625 L 1.296875 -2.453125 C 1.296875 -1.210938 1.828125 -0.59375 2.890625 -0.59375 C 3.359375 -0.59375 3.8125 -0.707031 4.25 -0.9375 L 4.46875 -0.609375 C 4.238281 -0.421875 3.945312 -0.253906 3.59375 -0.109375 C 3.238281 0.0234375 2.867188 0.09375 2.484375 0.09375 Z M 1.328125 -2.921875 L 3.421875 -3.109375 C 3.484375 -3.109375 3.515625 -3.171875 3.515625 -3.296875 C 3.515625 -3.585938 3.4375 -3.84375 3.28125 -4.0625 C 3.125 -4.28125 2.859375 -4.390625 2.484375 -4.390625 C 2.109375 -4.390625 1.832031 -4.257812 1.65625 -4 C 1.488281 -3.75 1.378906 -3.390625 1.328125 -2.921875 Z M 3.96875 -7.40625 L 3.96875 -7.171875 L 2.4375 -5.65625 L 2.09375 -5.90625 L 3.171875 -7.703125 Z M 3.96875 -7.40625 "/></g></g></g><g fill="#fffbeb" fill-opacity="1"><g transform="translate(160.811718, 11.23281)"><g><path d="M 2.125 0.09375 L 0.53125 -4.015625 C 0.488281 -4.140625 0.441406 -4.21875 0.390625 -4.25 C 0.347656 -4.28125 0.21875 -4.320312 0 -4.375 L 0.0625 -4.765625 L 2.140625 -4.765625 L 2.171875 -4.375 L 1.5625 -4.21875 C 1.507812 -4.21875 1.484375 -4.191406 1.484375 -4.140625 C 1.484375 -4.128906 1.5 -4.085938 1.53125 -4.015625 L 2.4375 -1.46875 C 2.519531 -1.238281 2.5625 -1.054688 2.5625 -0.921875 L 2.640625 -0.921875 L 3.765625 -3.78125 C 3.796875 -3.882812 3.8125 -3.972656 3.8125 -4.046875 C 3.8125 -4.117188 3.765625 -4.175781 3.671875 -4.21875 C 3.578125 -4.269531 3.40625 -4.320312 3.15625 -4.375 L 3.21875 -4.765625 L 5.015625 -4.765625 L 5.046875 -4.375 C 4.835938 -4.320312 4.707031 -4.285156 4.65625 -4.265625 C 4.601562 -4.253906 4.578125 -4.234375 4.578125 -4.203125 L 2.78125 0.09375 Z M 2.125 0.09375 "/></g></g></g><g fill="#fffbeb" fill-opacity="1"><g transform="translate(168.526515, 11.23281)"><g><path d="M 2.578125 0.09375 C 1.847656 0.09375 1.289062 -0.117188 0.90625 -0.546875 C 0.519531 -0.984375 0.328125 -1.585938 0.328125 -2.359375 C 0.328125 -3.128906 0.53125 -3.75 0.9375 -4.21875 C 1.351562 -4.6875 1.925781 -4.921875 2.65625 -4.921875 C 3.382812 -4.921875 3.941406 -4.703125 4.328125 -4.265625 C 4.722656 -3.835938 4.921875 -3.234375 4.921875 -2.453125 C 4.921875 -1.679688 4.710938 -1.0625 4.296875 -0.59375 C 3.878906 -0.132812 3.304688 0.09375 2.578125 0.09375 Z M 1.296875 -2.484375 C 1.296875 -1.890625 1.414062 -1.398438 1.65625 -1.015625 C 1.90625 -0.628906 2.238281 -0.4375 2.65625 -0.4375 C 3.070312 -0.4375 3.363281 -0.539062 3.53125 -0.75 C 3.65625 -0.882812 3.753906 -1.097656 3.828125 -1.390625 C 3.898438 -1.679688 3.9375 -2 3.9375 -2.34375 C 3.9375 -2.9375 3.816406 -3.425781 3.578125 -3.8125 C 3.335938 -4.195312 3.007812 -4.390625 2.59375 -4.390625 C 2.175781 -4.390625 1.878906 -4.285156 1.703125 -4.078125 C 1.578125 -3.941406 1.476562 -3.726562 1.40625 -3.4375 C 1.332031 -3.144531 1.296875 -2.828125 1.296875 -2.484375 Z M 1.296875 -2.484375 "/></g></g></g><g clip-path="url(#3294c2fb41)"><g fill="#fffbeb" fill-opacity="1"><g transform="translate(176.483353, 11.23281)"><g><path d="M 0.296875 1.171875 C 0.453125 1.191406 0.671875 1.203125 0.953125 1.203125 C 1.242188 1.203125 1.472656 1.164062 1.640625 1.09375 C 1.804688 1.03125 2.007812 0.664062 2.25 0 L 0.578125 -4.015625 C 0.523438 -4.140625 0.472656 -4.21875 0.421875 -4.25 C 0.378906 -4.28125 0.253906 -4.320312 0.046875 -4.375 L 0.09375 -4.765625 L 2.171875 -4.765625 L 2.21875 -4.375 L 1.609375 -4.21875 C 1.554688 -4.21875 1.53125 -4.191406 1.53125 -4.140625 C 1.53125 -4.128906 1.546875 -4.085938 1.578125 -4.015625 L 2.59375 -1.3125 C 2.632812 -1.21875 2.65625 -1.117188 2.65625 -1.015625 L 2.734375 -1.015625 L 3.796875 -3.78125 C 3.835938 -3.882812 3.859375 -3.972656 3.859375 -4.046875 C 3.859375 -4.117188 3.804688 -4.175781 3.703125 -4.21875 C 3.609375 -4.269531 3.4375 -4.320312 3.1875 -4.375 L 3.25 -4.765625 L 5.046875 -4.765625 L 5.09375 -4.375 C 4.789062 -4.300781 4.628906 -4.242188 4.609375 -4.203125 L 3.03125 -0.25 C 2.894531 0.0820312 2.785156 0.335938 2.703125 0.515625 C 2.617188 0.691406 2.503906 0.890625 2.359375 1.109375 C 2.222656 1.335938 2.078125 1.507812 1.921875 1.625 C 1.535156 1.914062 1.070312 2.109375 0.53125 2.203125 C 0.351562 2.023438 0.265625 1.75 0.265625 1.375 C 0.265625 1.332031 0.273438 1.265625 0.296875 1.171875 Z M 0.296875 1.171875 "/></g></g></g></g><g fill="#fffbeb" fill-opacity="1"><g transform="translate(184.238493, 11.23281)"><g><path d="M 0.421875 -1.234375 C 0.421875 -1.742188 0.632812 -2.117188 1.0625 -2.359375 C 1.5 -2.609375 2.203125 -2.738281 3.171875 -2.75 L 3.171875 -3.078125 C 3.171875 -3.953125 2.851562 -4.390625 2.21875 -4.390625 C 1.914062 -4.390625 1.722656 -4.34375 1.640625 -4.25 C 1.566406 -4.164062 1.488281 -3.878906 1.40625 -3.390625 L 0.859375 -3.453125 C 0.804688 -3.660156 0.78125 -3.875 0.78125 -4.09375 C 0.78125 -4.320312 0.78125 -4.472656 0.78125 -4.546875 C 1.175781 -4.796875 1.695312 -4.921875 2.34375 -4.921875 C 2.988281 -4.921875 3.4375 -4.796875 3.6875 -4.546875 C 3.945312 -4.296875 4.078125 -3.882812 4.078125 -3.3125 L 4.078125 -1 C 4.078125 -0.820312 4.117188 -0.695312 4.203125 -0.625 C 4.285156 -0.5625 4.5 -0.492188 4.84375 -0.421875 L 4.78125 -0.09375 L 3.5625 0.03125 C 3.5 0.03125 3.429688 -0.03125 3.359375 -0.15625 C 3.285156 -0.289062 3.25 -0.410156 3.25 -0.515625 C 3.25 -0.628906 3.25 -0.710938 3.25 -0.765625 L 3.171875 -0.796875 L 3.046875 -0.609375 C 2.734375 -0.140625 2.300781 0.09375 1.75 0.09375 C 1.375 0.09375 1.054688 -0.0195312 0.796875 -0.25 C 0.546875 -0.488281 0.421875 -0.816406 0.421875 -1.234375 Z M 1.40625 -1.328125 C 1.40625 -1.085938 1.46875 -0.90625 1.59375 -0.78125 C 1.71875 -0.65625 1.894531 -0.59375 2.125 -0.59375 C 2.363281 -0.59375 2.632812 -0.707031 2.9375 -0.9375 C 3.09375 -1.0625 3.171875 -1.1875 3.171875 -1.3125 L 3.171875 -2.3125 C 2.554688 -2.289062 2.109375 -2.207031 1.828125 -2.0625 C 1.546875 -1.914062 1.40625 -1.671875 1.40625 -1.328125 Z M 1.40625 -1.328125 "/></g></g></g><g fill="#fffbeb" fill-opacity="1"><g transform="translate(192.114646, 11.23281)"><g><path d="M 0.46875 0 L 0.40625 -0.390625 C 0.738281 -0.460938 0.941406 -0.53125 1.015625 -0.59375 C 1.085938 -0.664062 1.125 -0.789062 1.125 -0.96875 L 1.125 -3.875 C 1.125 -4.039062 1.078125 -4.160156 0.984375 -4.234375 C 0.898438 -4.304688 0.691406 -4.375 0.359375 -4.4375 L 0.40625 -4.765625 L 1.71875 -4.890625 C 1.757812 -4.890625 1.804688 -4.796875 1.859375 -4.609375 C 1.910156 -4.421875 1.9375 -4.257812 1.9375 -4.125 L 1.9375 -4.0625 L 2.015625 -4.03125 L 2.140625 -4.171875 C 2.554688 -4.671875 3.070312 -4.921875 3.6875 -4.921875 C 4.113281 -4.921875 4.453125 -4.789062 4.703125 -4.53125 C 4.953125 -4.269531 5.078125 -3.910156 5.078125 -3.453125 L 5.078125 -0.71875 C 5.078125 -0.644531 5.09375 -0.59375 5.125 -0.5625 C 5.164062 -0.539062 5.21875 -0.523438 5.28125 -0.515625 L 5.78125 -0.390625 L 5.734375 0 L 3.578125 0 L 3.515625 -0.390625 C 3.816406 -0.453125 4 -0.519531 4.0625 -0.59375 C 4.132812 -0.664062 4.171875 -0.789062 4.171875 -0.96875 L 4.171875 -3.140625 C 4.171875 -3.460938 4.113281 -3.71875 4 -3.90625 C 3.882812 -4.09375 3.660156 -4.1875 3.328125 -4.1875 C 2.992188 -4.1875 2.632812 -4.054688 2.25 -3.796875 C 2.1875 -3.753906 2.140625 -3.722656 2.109375 -3.703125 C 2.054688 -3.640625 2.03125 -3.515625 2.03125 -3.328125 L 2.03125 -0.734375 C 2.03125 -0.660156 2.039062 -0.609375 2.0625 -0.578125 C 2.082031 -0.554688 2.140625 -0.535156 2.234375 -0.515625 L 2.671875 -0.390625 L 2.625 0 Z M 0.46875 0 "/></g></g></g><g fill="#fffbeb" fill-opacity="1"><g transform="translate(200.83792, 11.23281)"><g><path d="M 0.828125 -4.078125 C 0.992188 -4.335938 1.238281 -4.539062 1.5625 -4.6875 C 1.894531 -4.84375 2.300781 -4.921875 2.78125 -4.921875 C 3.257812 -4.921875 3.734375 -4.828125 4.203125 -4.640625 C 4.210938 -4.585938 4.21875 -4.410156 4.21875 -4.109375 C 4.21875 -3.816406 4.175781 -3.53125 4.09375 -3.25 L 3.53125 -3.1875 C 3.414062 -3.875 3.3125 -4.234375 3.21875 -4.265625 C 3.082031 -4.328125 2.832031 -4.359375 2.46875 -4.359375 C 2.101562 -4.359375 1.835938 -4.234375 1.671875 -3.984375 C 1.429688 -3.628906 1.3125 -3.125 1.3125 -2.46875 C 1.3125 -1.8125 1.453125 -1.332031 1.734375 -1.03125 C 2.023438 -0.738281 2.398438 -0.59375 2.859375 -0.59375 C 3.328125 -0.59375 3.773438 -0.738281 4.203125 -1.03125 L 4.484375 -0.703125 C 3.941406 -0.171875 3.300781 0.09375 2.5625 0.09375 C 1.832031 0.09375 1.28125 -0.132812 0.90625 -0.59375 C 0.53125 -1.0625 0.34375 -1.632812 0.34375 -2.3125 C 0.34375 -2.988281 0.503906 -3.578125 0.828125 -4.078125 Z M 0.828125 -4.078125 "/></g></g></g><g fill="#fffbeb" fill-opacity="1"><g transform="translate(208.270349, 11.23281)"><g><path d="M 2.484375 0.09375 C 1.804688 0.09375 1.28125 -0.132812 0.90625 -0.59375 C 0.53125 -1.0625 0.34375 -1.648438 0.34375 -2.359375 C 0.34375 -3.066406 0.554688 -3.671875 0.984375 -4.171875 C 1.410156 -4.671875 1.976562 -4.921875 2.6875 -4.921875 C 3.832031 -4.921875 4.429688 -4.21875 4.484375 -2.8125 L 4.21875 -2.625 L 1.296875 -2.453125 C 1.296875 -1.210938 1.828125 -0.59375 2.890625 -0.59375 C 3.359375 -0.59375 3.8125 -0.707031 4.25 -0.9375 L 4.46875 -0.609375 C 4.238281 -0.421875 3.945312 -0.253906 3.59375 -0.109375 C 3.238281 0.0234375 2.867188 0.09375 2.484375 0.09375 Z M 1.328125 -2.921875 L 3.421875 -3.109375 C 3.484375 -3.109375 3.515625 -3.171875 3.515625 -3.296875 C 3.515625 -3.585938 3.4375 -3.84375 3.28125 -4.0625 C 3.125 -4.28125 2.859375 -4.390625 2.484375 -4.390625 C 2.109375 -4.390625 1.832031 -4.257812 1.65625 -4 C 1.488281 -3.75 1.378906 -3.390625 1.328125 -2.921875 Z M 1.328125 -2.921875 "/></g></g></g><g fill="#fffbeb" fill-opacity="1"><g transform="translate(215.803619, 11.23281)"><g/></g></g><g fill="#fffbeb" fill-opacity="1"><g transform="translate(220.98716, 11.23281)"><g><path d="M 2.484375 0.09375 C 1.804688 0.09375 1.28125 -0.132812 0.90625 -0.59375 C 0.53125 -1.0625 0.34375 -1.648438 0.34375 -2.359375 C 0.34375 -3.066406 0.554688 -3.671875 0.984375 -4.171875 C 1.410156 -4.671875 1.976562 -4.921875 2.6875 -4.921875 C 3.832031 -4.921875 4.429688 -4.21875 4.484375 -2.8125 L 4.21875 -2.625 L 1.296875 -2.453125 C 1.296875 -1.210938 1.828125 -0.59375 2.890625 -0.59375 C 3.359375 -0.59375 3.8125 -0.707031 4.25 -0.9375 L 4.46875 -0.609375 C 4.238281 -0.421875 3.945312 -0.253906 3.59375 -0.109375 C 3.238281 0.0234375 2.867188 0.09375 2.484375 0.09375 Z M 1.328125 -2.921875 L 3.421875 -3.109375 C 3.484375 -3.109375 3.515625 -3.171875 3.515625 -3.296875 C 3.515625 -3.585938 3.4375 -3.84375 3.28125 -4.0625 C 3.125 -4.28125 2.859375 -4.390625 2.484375 -4.390625 C 2.109375 -4.390625 1.832031 -4.257812 1.65625 -4 C 1.488281 -3.75 1.378906 -3.390625 1.328125 -2.921875 Z M 1.328125 -2.921875 "/></g></g></g><g fill="#fffbeb" fill-opacity="1"><g transform="translate(228.520444, 11.23281)"><g><path d="M 0.859375 -1.375 L 0.859375 -4.15625 L 0.203125 -4.15625 L 0.15625 -4.578125 L 0.65625 -4.703125 C 0.78125 -4.734375 0.863281 -4.804688 0.90625 -4.921875 C 0.957031 -5.046875 1.039062 -5.425781 1.15625 -6.0625 L 1.765625 -6.125 L 1.765625 -4.765625 L 3.171875 -4.765625 L 3.078125 -4.296875 L 1.765625 -4.140625 L 1.765625 -1.6875 C 1.765625 -0.988281 1.976562 -0.640625 2.40625 -0.640625 C 2.644531 -0.640625 2.898438 -0.738281 3.171875 -0.9375 L 3.390625 -0.640625 C 3.023438 -0.148438 2.582031 0.09375 2.0625 0.09375 C 1.675781 0.09375 1.378906 -0.0351562 1.171875 -0.296875 C 0.960938 -0.566406 0.859375 -0.925781 0.859375 -1.375 Z M 0.859375 -1.375 "/></g></g></g><g fill="#fffbeb" fill-opacity="1"><g transform="translate(234.762882, 11.23281)"><g/></g></g><g fill="#fffbeb" fill-opacity="1"><g transform="translate(239.946422, 11.23281)"><g><path d="M 0.5 0 L 0.4375 -0.390625 C 0.800781 -0.453125 1.019531 -0.519531 1.09375 -0.59375 C 1.164062 -0.664062 1.203125 -0.804688 1.203125 -1.015625 L 1.203125 -5.96875 C 1.203125 -6.175781 1.164062 -6.316406 1.09375 -6.390625 C 1.019531 -6.460938 0.800781 -6.53125 0.4375 -6.59375 L 0.5 -6.984375 L 3.3125 -6.984375 C 4.03125 -6.984375 4.566406 -6.8125 4.921875 -6.46875 C 5.273438 -6.125 5.453125 -5.632812 5.453125 -5 C 5.453125 -4.363281 5.21875 -3.820312 4.75 -3.375 C 4.28125 -2.925781 3.601562 -2.703125 2.71875 -2.703125 L 2.1875 -2.703125 L 2.1875 -0.78125 C 2.1875 -0.613281 2.253906 -0.523438 2.390625 -0.515625 L 3.40625 -0.390625 L 3.359375 0 Z M 2.1875 -3.234375 L 2.625 -3.234375 C 3.070312 -3.234375 3.460938 -3.335938 3.796875 -3.546875 C 4.179688 -3.796875 4.375 -4.253906 4.375 -4.921875 C 4.375 -5.535156 4.210938 -5.953125 3.890625 -6.171875 C 3.617188 -6.359375 3.328125 -6.453125 3.015625 -6.453125 L 2.390625 -6.453125 C 2.253906 -6.453125 2.1875 -6.367188 2.1875 -6.203125 Z M 2.1875 -3.234375 "/></g></g></g><g fill="#fffbeb" fill-opacity="1"><g transform="translate(248.296577, 11.23281)"><g><path d="M 0.421875 -1.234375 C 0.421875 -1.742188 0.632812 -2.117188 1.0625 -2.359375 C 1.5 -2.609375 2.203125 -2.738281 3.171875 -2.75 L 3.171875 -3.078125 C 3.171875 -3.953125 2.851562 -4.390625 2.21875 -4.390625 C 1.914062 -4.390625 1.722656 -4.34375 1.640625 -4.25 C 1.566406 -4.164062 1.488281 -3.878906 1.40625 -3.390625 L 0.859375 -3.453125 C 0.804688 -3.660156 0.78125 -3.875 0.78125 -4.09375 C 0.78125 -4.320312 0.78125 -4.472656 0.78125 -4.546875 C 1.175781 -4.796875 1.695312 -4.921875 2.34375 -4.921875 C 2.988281 -4.921875 3.4375 -4.796875 3.6875 -4.546875 C 3.945312 -4.296875 4.078125 -3.882812 4.078125 -3.3125 L 4.078125 -1 C 4.078125 -0.820312 4.117188 -0.695312 4.203125 -0.625 C 4.285156 -0.5625 4.5 -0.492188 4.84375 -0.421875 L 4.78125 -0.09375 L 3.5625 0.03125 C 3.5 0.03125 3.429688 -0.03125 3.359375 -0.15625 C 3.285156 -0.289062 3.25 -0.410156 3.25 -0.515625 C 3.25 -0.628906 3.25 -0.710938 3.25 -0.765625 L 3.171875 -0.796875 L 3.046875 -0.609375 C 2.734375 -0.140625 2.300781 0.09375 1.75 0.09375 C 1.375 0.09375 1.054688 -0.0195312 0.796875 -0.25 C 0.546875 -0.488281 0.421875 -0.816406 0.421875 -1.234375 Z M 1.40625 -1.328125 C 1.40625 -1.085938 1.46875 -0.90625 1.59375 -0.78125 C 1.71875 -0.65625 1.894531 -0.59375 2.125 -0.59375 C 2.363281 -0.59375 2.632812 -0.707031 2.9375 -0.9375 C 3.09375 -1.0625 3.171875 -1.1875 3.171875 -1.3125 L 3.171875 -2.3125 C 2.554688 -2.289062 2.109375 -2.207031 1.828125 -2.0625 C 1.546875 -1.914062 1.40625 -1.671875 1.40625 -1.328125 Z M 1.40625 -1.328125 "/></g></g></g><g fill="#fffbeb" fill-opacity="1"><g transform="translate(256.17273, 11.23281)"><g><path d="M 0.859375 -1.375 L 0.859375 -4.15625 L 0.203125 -4.15625 L 0.15625 -4.578125 L 0.65625 -4.703125 C 0.78125 -4.734375 0.863281 -4.804688 0.90625 -4.921875 C 0.957031 -5.046875 1.039062 -5.425781 1.15625 -6.0625 L 1.765625 -6.125 L 1.765625 -4.765625 L 3.171875 -4.765625 L 3.078125 -4.296875 L 1.765625 -4.140625 L 1.765625 -1.6875 C 1.765625 -0.988281 1.976562 -0.640625 2.40625 -0.640625 C 2.644531 -0.640625 2.898438 -0.738281 3.171875 -0.9375 L 3.390625 -0.640625 C 3.023438 -0.148438 2.582031 0.09375 2.0625 0.09375 C 1.675781 0.09375 1.378906 -0.0351562 1.171875 -0.296875 C 0.960938 -0.566406 0.859375 -0.925781 0.859375 -1.375 Z M 0.859375 -1.375 "/></g></g></g><g fill="#fffbeb" fill-opacity="1"><g transform="translate(262.415168, 11.23281)"><g><path d="M 0.40625 0 L 0.34375 -0.390625 C 0.695312 -0.453125 0.914062 -0.519531 1 -0.59375 C 1.082031 -0.664062 1.125 -0.789062 1.125 -0.96875 L 1.125 -3.875 C 1.125 -4.039062 1.078125 -4.160156 0.984375 -4.234375 C 0.890625 -4.316406 0.65625 -4.382812 0.28125 -4.4375 L 0.34375 -4.765625 L 1.71875 -4.890625 C 1.757812 -4.890625 1.804688 -4.820312 1.859375 -4.6875 C 1.910156 -4.5625 1.9375 -4.425781 1.9375 -4.28125 C 1.9375 -4.132812 1.925781 -3.96875 1.90625 -3.78125 L 1.984375 -3.75 L 2.109375 -4.046875 C 2.234375 -4.304688 2.414062 -4.515625 2.65625 -4.671875 C 2.90625 -4.835938 3.15625 -4.921875 3.40625 -4.921875 C 3.664062 -4.921875 3.898438 -4.863281 4.109375 -4.75 C 4.109375 -4.207031 4.054688 -3.660156 3.953125 -3.109375 L 3.46875 -3.046875 C 3.414062 -3.617188 3.359375 -3.941406 3.296875 -4.015625 C 3.242188 -4.085938 3.15625 -4.125 3.03125 -4.125 C 2.914062 -4.125 2.769531 -4.066406 2.59375 -3.953125 C 2.425781 -3.847656 2.289062 -3.734375 2.1875 -3.609375 C 2.082031 -3.484375 2.03125 -3.28125 2.03125 -3 L 2.03125 -0.71875 C 2.03125 -0.632812 2.046875 -0.582031 2.078125 -0.5625 C 2.117188 -0.539062 2.171875 -0.523438 2.234375 -0.515625 L 3.140625 -0.390625 L 3.109375 0 Z M 0.40625 0 "/></g></g></g><g fill="#fffbeb" fill-opacity="1"><g transform="translate(269.484556, 11.23281)"><g><path d="M 0.46875 0 L 0.40625 -0.390625 C 0.738281 -0.460938 0.941406 -0.53125 1.015625 -0.59375 C 1.085938 -0.664062 1.125 -0.789062 1.125 -0.96875 L 1.125 -3.859375 C 1.125 -4.003906 1.066406 -4.109375 0.953125 -4.171875 C 0.847656 -4.234375 0.648438 -4.296875 0.359375 -4.359375 L 0.40625 -4.671875 C 1.125 -4.765625 1.628906 -4.8125 1.921875 -4.8125 L 2.03125 -4.71875 L 2.03125 -0.71875 C 2.03125 -0.644531 2.046875 -0.59375 2.078125 -0.5625 C 2.117188 -0.539062 2.171875 -0.523438 2.234375 -0.515625 L 2.71875 -0.390625 L 2.6875 0 Z M 2.03125 -6.609375 C 2.03125 -6.441406 1.976562 -6.300781 1.875 -6.1875 C 1.769531 -6.070312 1.628906 -6.015625 1.453125 -6.015625 C 1.285156 -6.015625 1.144531 -6.0625 1.03125 -6.15625 C 0.925781 -6.257812 0.875 -6.398438 0.875 -6.578125 C 0.875 -6.765625 0.925781 -6.910156 1.03125 -7.015625 C 1.132812 -7.117188 1.28125 -7.171875 1.46875 -7.171875 C 1.84375 -7.171875 2.03125 -6.984375 2.03125 -6.609375 Z M 2.03125 -6.609375 "/></g></g></g><g fill="#fffbeb" fill-opacity="1"><g transform="translate(275.323598, 11.23281)"><g><path d="M 0.46875 0 L 0.40625 -0.390625 C 0.738281 -0.460938 0.941406 -0.53125 1.015625 -0.59375 C 1.085938 -0.664062 1.125 -0.789062 1.125 -0.96875 L 1.125 -3.875 C 1.125 -4.039062 1.078125 -4.160156 0.984375 -4.234375 C 0.898438 -4.304688 0.691406 -4.375 0.359375 -4.4375 L 0.40625 -4.765625 L 1.71875 -4.890625 C 1.757812 -4.890625 1.804688 -4.796875 1.859375 -4.609375 C 1.910156 -4.429688 1.9375 -4.269531 1.9375 -4.125 L 1.9375 -4.0625 L 2 -4.03125 L 2.109375 -4.15625 C 2.273438 -4.375 2.488281 -4.554688 2.75 -4.703125 C 3.007812 -4.847656 3.28125 -4.921875 3.5625 -4.921875 C 4.207031 -4.921875 4.617188 -4.628906 4.796875 -4.046875 L 4.875 -4.046875 L 4.984375 -4.1875 C 5.359375 -4.675781 5.835938 -4.921875 6.421875 -4.921875 C 6.828125 -4.921875 7.144531 -4.785156 7.375 -4.515625 C 7.613281 -4.253906 7.734375 -3.898438 7.734375 -3.453125 L 7.734375 -0.71875 C 7.734375 -0.644531 7.75 -0.59375 7.78125 -0.5625 C 7.820312 -0.539062 7.875 -0.523438 7.9375 -0.515625 L 8.421875 -0.390625 L 8.390625 0 L 6.234375 0 L 6.171875 -0.390625 C 6.472656 -0.453125 6.65625 -0.519531 6.71875 -0.59375 C 6.789062 -0.664062 6.828125 -0.789062 6.828125 -0.96875 L 6.828125 -3.25 C 6.828125 -3.875 6.570312 -4.1875 6.0625 -4.1875 C 5.800781 -4.1875 5.472656 -4.054688 5.078125 -3.796875 C 4.992188 -3.753906 4.9375 -3.703125 4.90625 -3.640625 C 4.882812 -3.585938 4.875 -3.484375 4.875 -3.328125 L 4.875 -0.71875 C 4.875 -0.644531 4.890625 -0.59375 4.921875 -0.5625 C 4.960938 -0.539062 5.015625 -0.523438 5.078125 -0.515625 L 5.515625 -0.390625 L 5.484375 0 L 3.375 0 L 3.3125 -0.390625 C 3.613281 -0.453125 3.796875 -0.519531 3.859375 -0.59375 C 3.929688 -0.664062 3.96875 -0.789062 3.96875 -0.96875 L 3.96875 -3.25 C 3.96875 -3.875 3.71875 -4.1875 3.21875 -4.1875 C 2.957031 -4.1875 2.628906 -4.054688 2.234375 -3.796875 C 2.148438 -3.753906 2.09375 -3.703125 2.0625 -3.640625 C 2.039062 -3.585938 2.03125 -3.484375 2.03125 -3.328125 L 2.03125 -0.71875 C 2.03125 -0.644531 2.046875 -0.59375 2.078125 -0.5625 C 2.117188 -0.539062 2.171875 -0.523438 2.234375 -0.515625 L 2.671875 -0.390625 L 2.625 0 Z M 0.46875 0 "/></g></g></g><g fill="#fffbeb" fill-opacity="1"><g transform="translate(286.699156, 11.23281)"><g><path d="M 2.578125 0.09375 C 1.847656 0.09375 1.289062 -0.117188 0.90625 -0.546875 C 0.519531 -0.984375 0.328125 -1.585938 0.328125 -2.359375 C 0.328125 -3.128906 0.53125 -3.75 0.9375 -4.21875 C 1.351562 -4.6875 1.925781 -4.921875 2.65625 -4.921875 C 3.382812 -4.921875 3.941406 -4.703125 4.328125 -4.265625 C 4.722656 -3.835938 4.921875 -3.234375 4.921875 -2.453125 C 4.921875 -1.679688 4.710938 -1.0625 4.296875 -0.59375 C 3.878906 -0.132812 3.304688 0.09375 2.578125 0.09375 Z M 1.296875 -2.484375 C 1.296875 -1.890625 1.414062 -1.398438 1.65625 -1.015625 C 1.90625 -0.628906 2.238281 -0.4375 2.65625 -0.4375 C 3.070312 -0.4375 3.363281 -0.539062 3.53125 -0.75 C 3.65625 -0.882812 3.753906 -1.097656 3.828125 -1.390625 C 3.898438 -1.679688 3.9375 -2 3.9375 -2.34375 C 3.9375 -2.9375 3.816406 -3.425781 3.578125 -3.8125 C 3.335938 -4.195312 3.007812 -4.390625 2.59375 -4.390625 C 2.175781 -4.390625 1.878906 -4.285156 1.703125 -4.078125 C 1.578125 -3.941406 1.476562 -3.726562 1.40625 -3.4375 C 1.332031 -3.144531 1.296875 -2.828125 1.296875 -2.484375 Z M 1.296875 -2.484375 "/></g></g></g><g fill="#fffbeb" fill-opacity="1"><g transform="translate(294.655993, 11.23281)"><g><path d="M 0.46875 0 L 0.40625 -0.390625 C 0.738281 -0.460938 0.941406 -0.53125 1.015625 -0.59375 C 1.085938 -0.664062 1.125 -0.789062 1.125 -0.96875 L 1.125 -3.859375 C 1.125 -4.003906 1.066406 -4.109375 0.953125 -4.171875 C 0.847656 -4.234375 0.648438 -4.296875 0.359375 -4.359375 L 0.40625 -4.671875 C 1.125 -4.765625 1.628906 -4.8125 1.921875 -4.8125 L 2.03125 -4.71875 L 2.03125 -0.71875 C 2.03125 -0.644531 2.046875 -0.59375 2.078125 -0.5625 C 2.117188 -0.539062 2.171875 -0.523438 2.234375 -0.515625 L 2.71875 -0.390625 L 2.6875 0 Z M 2.03125 -6.609375 C 2.03125 -6.441406 1.976562 -6.300781 1.875 -6.1875 C 1.769531 -6.070312 1.628906 -6.015625 1.453125 -6.015625 C 1.285156 -6.015625 1.144531 -6.0625 1.03125 -6.15625 C 0.925781 -6.257812 0.875 -6.398438 0.875 -6.578125 C 0.875 -6.765625 0.925781 -6.910156 1.03125 -7.015625 C 1.132812 -7.117188 1.28125 -7.171875 1.46875 -7.171875 C 1.84375 -7.171875 2.03125 -6.984375 2.03125 -6.609375 Z M 2.03125 -6.609375 "/></g></g></g><g fill="#fffbeb" fill-opacity="1"><g transform="translate(300.495036, 11.23281)"><g><path d="M 0.46875 0 L 0.40625 -0.390625 C 0.738281 -0.460938 0.941406 -0.53125 1.015625 -0.59375 C 1.085938 -0.664062 1.125 -0.789062 1.125 -0.96875 L 1.125 -3.875 C 1.125 -4.039062 1.078125 -4.160156 0.984375 -4.234375 C 0.898438 -4.304688 0.691406 -4.375 0.359375 -4.4375 L 0.40625 -4.765625 L 1.71875 -4.890625 C 1.757812 -4.890625 1.804688 -4.796875 1.859375 -4.609375 C 1.910156 -4.421875 1.9375 -4.257812 1.9375 -4.125 L 1.9375 -4.0625 L 2.015625 -4.03125 L 2.140625 -4.171875 C 2.554688 -4.671875 3.070312 -4.921875 3.6875 -4.921875 C 4.113281 -4.921875 4.453125 -4.789062 4.703125 -4.53125 C 4.953125 -4.269531 5.078125 -3.910156 5.078125 -3.453125 L 5.078125 -0.71875 C 5.078125 -0.644531 5.09375 -0.59375 5.125 -0.5625 C 5.164062 -0.539062 5.21875 -0.523438 5.28125 -0.515625 L 5.78125 -0.390625 L 5.734375 0 L 3.578125 0 L 3.515625 -0.390625 C 3.816406 -0.453125 4 -0.519531 4.0625 -0.59375 C 4.132812 -0.664062 4.171875 -0.789062 4.171875 -0.96875 L 4.171875 -3.140625 C 4.171875 -3.460938 4.113281 -3.71875 4 -3.90625 C 3.882812 -4.09375 3.660156 -4.1875 3.328125 -4.1875 C 2.992188 -4.1875 2.632812 -4.054688 2.25 -3.796875 C 2.1875 -3.753906 2.140625 -3.722656 2.109375 -3.703125 C 2.054688 -3.640625 2.03125 -3.515625 2.03125 -3.328125 L 2.03125 -0.734375 C 2.03125 -0.660156 2.039062 -0.609375 2.0625 -0.578125 C 2.082031 -0.554688 2.140625 -0.535156 2.234375 -0.515625 L 2.671875 -0.390625 L 2.625 0 Z M 0.46875 0 "/></g></g></g><g fill="#fffbeb" fill-opacity="1"><g transform="translate(309.218323, 11.23281)"><g><path d="M 2.484375 0.09375 C 1.804688 0.09375 1.28125 -0.132812 0.90625 -0.59375 C 0.53125 -1.0625 0.34375 -1.648438 0.34375 -2.359375 C 0.34375 -3.066406 0.554688 -3.671875 0.984375 -4.171875 C 1.410156 -4.671875 1.976562 -4.921875 2.6875 -4.921875 C 3.832031 -4.921875 4.429688 -4.21875 4.484375 -2.8125 L 4.21875 -2.625 L 1.296875 -2.453125 C 1.296875 -1.210938 1.828125 -0.59375 2.890625 -0.59375 C 3.359375 -0.59375 3.8125 -0.707031 4.25 -0.9375 L 4.46875 -0.609375 C 4.238281 -0.421875 3.945312 -0.253906 3.59375 -0.109375 C 3.238281 0.0234375 2.867188 0.09375 2.484375 0.09375 Z M 1.328125 -2.921875 L 3.421875 -3.109375 C 3.484375 -3.109375 3.515625 -3.171875 3.515625 -3.296875 C 3.515625 -3.585938 3.4375 -3.84375 3.28125 -4.0625 C 3.125 -4.28125 2.859375 -4.390625 2.484375 -4.390625 C 2.109375 -4.390625 1.832031 -4.257812 1.65625 -4 C 1.488281 -3.75 1.378906 -3.390625 1.328125 -2.921875 Z M 1.328125 -2.921875 "/></g></g></g></g></g></g></svg>